<?xml version="1.0" encoding="UTF-8" standalone="no"?>
<svg
   xmlns:dc="http://purl.org/dc/elements/1.1/"
   xmlns:cc="http://creativecommons.org/ns#"
   xmlns:rdf="http://www.w3.org/1999/02/22-rdf-syntax-ns#"
   xmlns:svg="http://www.w3.org/2000/svg"
   xmlns="http://www.w3.org/2000/svg"
   width="316.55389mm"
   height="121.14727mm"
   viewBox="0 0 316.55389 121.14727"
   version="1.1"
   id="svg8">
  <defs
     id="defs2">
    <rect
       x="1308.1862"
       y="1263.0748"
       width="577.99298"
       height="71.072258"
       id="rect34820" />
    <rect
       x="342.14871"
       y="1279.3033"
       width="746.15686"
       height="98.330254"
       id="rect34814" />
    <clipPath
       clipPathUnits="userSpaceOnUse"
       id="clipPath82">
      <path
         d="M 0,2560 H 1440 V 0 H 0 Z"
         id="path80" />
    </clipPath>
    <clipPath
       clipPathUnits="userSpaceOnUse"
       id="clipPath90">
      <path
         d="M 12.5697,2551.36 H 1427.43 V 8.63821 H 12.5697 Z"
         id="path88" />
    </clipPath>
    <clipPath
       clipPathUnits="userSpaceOnUse"
       id="clipPath5318">
      <path
         d="M 0,2560 H 1440 V 0 H 0 Z"
         id="path5316" />
    </clipPath>
    <clipPath
       clipPathUnits="userSpaceOnUse"
       id="clipPath5526">
      <path
         d="M 0,2560 H 1440 V 0 H 0 Z"
         id="path5524" />
    </clipPath>
    <clipPath
       clipPathUnits="userSpaceOnUse"
       id="clipPath5614">
      <path
         d="M 0,2560 H 1440 V 0 H 0 Z"
         id="path5612" />
    </clipPath>
    <clipPath
       clipPathUnits="userSpaceOnUse"
       id="clipPath5686">
      <path
         d="m 747.486,2374.824 c 0,-32.711 26.517,-59.228 59.228,-59.228 v 0 c 32.711,0 59.228,26.517 59.228,59.228 v 0 c 0,32.711 -26.517,59.228 -59.228,59.228 v 0 c -32.711,0 -59.228,-26.517 -59.228,-59.228"
         id="path5684" />
    </clipPath>
    <clipPath
       clipPathUnits="userSpaceOnUse"
       id="clipPath5766">
      <path
         d="M 0,2560 H 1440 V 0 H 0 Z"
         id="path5764" />
    </clipPath>
    <clipPath
       clipPathUnits="userSpaceOnUse"
       id="clipPath8961">
      <path
         d="M 0,2560 H 1440 V 0 H 0 Z"
         id="path8959" />
    </clipPath>
    <clipPath
       clipPathUnits="userSpaceOnUse"
       id="clipPath8969">
      <path
         d="M 12.5697,2551.36 H 1427.43 V 8.63821 H 12.5697 Z"
         id="path8967" />
    </clipPath>
    <clipPath
       clipPathUnits="userSpaceOnUse"
       id="clipPath14197">
      <path
         d="M 0,2560 H 1440 V 0 H 0 Z"
         id="path14195" />
    </clipPath>
    <clipPath
       clipPathUnits="userSpaceOnUse"
       id="clipPath14405">
      <path
         d="M 0,2560 H 1440 V 0 H 0 Z"
         id="path14403" />
    </clipPath>
    <clipPath
       clipPathUnits="userSpaceOnUse"
       id="clipPath14493">
      <path
         d="M 0,2560 H 1440 V 0 H 0 Z"
         id="path14491" />
    </clipPath>
    <clipPath
       clipPathUnits="userSpaceOnUse"
       id="clipPath14565">
      <path
         d="m 747.486,2374.824 c 0,-32.711 26.517,-59.228 59.228,-59.228 v 0 c 32.711,0 59.228,26.517 59.228,59.228 v 0 c 0,32.711 -26.517,59.228 -59.228,59.228 v 0 c -32.711,0 -59.228,-26.517 -59.228,-59.228"
         id="path14563" />
    </clipPath>
    <clipPath
       clipPathUnits="userSpaceOnUse"
       id="clipPath14645">
      <path
         d="M 0,2560 H 1440 V 0 H 0 Z"
         id="path14643" />
    </clipPath>
    <clipPath
       clipPathUnits="userSpaceOnUse"
       id="clipPath17596">
      <path
         d="M 0,2560 H 1440 V 0 H 0 Z"
         id="path17594" />
    </clipPath>
    <clipPath
       clipPathUnits="userSpaceOnUse"
       id="clipPath17604">
      <path
         d="M 12.5697,2551.36 H 1427.43 V 8.63821 H 12.5697 Z"
         id="path17602" />
    </clipPath>
    <clipPath
       clipPathUnits="userSpaceOnUse"
       id="clipPath22832">
      <path
         d="M 0,2560 H 1440 V 0 H 0 Z"
         id="path22830" />
    </clipPath>
    <clipPath
       clipPathUnits="userSpaceOnUse"
       id="clipPath23040">
      <path
         d="M 0,2560 H 1440 V 0 H 0 Z"
         id="path23038" />
    </clipPath>
    <clipPath
       clipPathUnits="userSpaceOnUse"
       id="clipPath23128">
      <path
         d="M 0,2560 H 1440 V 0 H 0 Z"
         id="path23126" />
    </clipPath>
    <clipPath
       clipPathUnits="userSpaceOnUse"
       id="clipPath23200">
      <path
         d="m 747.486,2374.824 c 0,-32.711 26.517,-59.228 59.228,-59.228 v 0 c 32.711,0 59.228,26.517 59.228,59.228 v 0 c 0,32.711 -26.517,59.228 -59.228,59.228 v 0 c -32.711,0 -59.228,-26.517 -59.228,-59.228"
         id="path23198" />
    </clipPath>
    <clipPath
       clipPathUnits="userSpaceOnUse"
       id="clipPath23280">
      <path
         d="M 0,2560 H 1440 V 0 H 0 Z"
         id="path23278" />
    </clipPath>
    <clipPath
       clipPathUnits="userSpaceOnUse"
       id="clipPath26249">
      <path
         d="M 0,2560 H 1440 V 0 H 0 Z"
         id="path26247" />
    </clipPath>
    <clipPath
       clipPathUnits="userSpaceOnUse"
       id="clipPath26257">
      <path
         d="M 12.5697,2551.36 H 1427.43 V 8.63821 H 12.5697 Z"
         id="path26255" />
    </clipPath>
    <clipPath
       clipPathUnits="userSpaceOnUse"
       id="clipPath31485">
      <path
         d="M 0,2560 H 1440 V 0 H 0 Z"
         id="path31483" />
    </clipPath>
    <clipPath
       clipPathUnits="userSpaceOnUse"
       id="clipPath31693">
      <path
         d="M 0,2560 H 1440 V 0 H 0 Z"
         id="path31691" />
    </clipPath>
    <clipPath
       clipPathUnits="userSpaceOnUse"
       id="clipPath31781">
      <path
         d="M 0,2560 H 1440 V 0 H 0 Z"
         id="path31779" />
    </clipPath>
    <clipPath
       clipPathUnits="userSpaceOnUse"
       id="clipPath31853">
      <path
         d="m 747.486,2374.824 c 0,-32.711 26.517,-59.228 59.228,-59.228 v 0 c 32.711,0 59.228,26.517 59.228,59.228 v 0 c 0,32.711 -26.517,59.228 -59.228,59.228 v 0 c -32.711,0 -59.228,-26.517 -59.228,-59.228"
         id="path31851" />
    </clipPath>
    <clipPath
       clipPathUnits="userSpaceOnUse"
       id="clipPath31933">
      <path
         d="M 0,2560 H 1440 V 0 H 0 Z"
         id="path31931" />
    </clipPath>
  </defs>
  <metadata
     id="metadata5">
    <rdf:RDF>
      <cc:Work
         rdf:about="">
        <dc:format>image/svg+xml</dc:format>
        <dc:type
           rdf:resource="http://purl.org/dc/dcmitype/StillImage" />
        <dc:title></dc:title>
      </cc:Work>
    </rdf:RDF>
  </metadata>
  <g
     id="layer1"
     transform="translate(436.27717,421.24839)">
    <g
       id="g74"
       transform="matrix(0.35277777,0,0,-0.35277777,-152.89942,440.60254)">
      <g
         id="g8953"
         transform="translate(-212.97837,809.56294)">
        <g
           id="g17588"
           transform="translate(-18.662622,-261.41221)">
          <g
             id="g23122"
             transform="translate(79.777616,-30.247324)" />
          <g
             id="g26241"
             transform="translate(-842.97568,-40.692468)">
            <g
               id="g31479" />
            <g
               id="g31687">
              <g
                 id="g31689"
                 clip-path="url(#clipPath31693)">
                <g
                   id="g31695"
                   transform="translate(959.3306,1748.2776)">
                  <path
                     d="M 0,0 43.175,19.092 C 38.27,25.053 31.268,27.761 24.307,27.761 10.481,27.761 -3.192,17.083 0,0 M 78.665,-54.724 C 64.836,-67.162 47.212,-76.633 28.366,-77.739 c -1.207,-0.071 -2.418,-0.106 -3.623,-0.106 -19.776,0 -38.991,9.453 -50.658,25.598 -2.795,3.868 -5.082,8.081 -6.947,12.471 -0.225,1.771 -0.573,3.636 -1.237,5.702 -2.344,7.299 -3.577,14.929 -3.664,22.677 -0.001,0.152 -0.007,0.303 -0.016,0.454 -0.192,3.114 0.263,6.52 0.745,10.126 0.391,2.928 0.796,5.956 0.909,9.15 0.012,0.331 0.005,0.662 -0.02,0.993 -0.049,0.659 -0.091,1.319 -0.137,1.979 3.458,14.086 11.374,27.328 23.82,35.157 11.096,6.98 23.812,10.361 36.745,10.361 2.626,0 5.258,-0.139 7.89,-0.416 14.705,-1.546 29.206,-7.981 39.198,-19.06 6.197,-6.871 10.184,-15.327 11.901,-24.398 0.246,-1.3 1.061,-5.998 0.774,-10.771 -0.034,-0.016 -73.541,-33.439 -73.541,-33.439 5.943,-4.409 12.683,-6.355 19.682,-6.355 9.138,0 18.717,3.317 27.545,8.799 5.875,3.49 11.811,7.926 17.73,13.186 l 9.736,-32.798 c 0,-0.855 -3.327,-3.343 -3.991,-3.975 -0.832,-0.792 -1.689,-1.552 -2.542,-2.32 m -182.958,38.167 c 2.05,28.271 -5.339,45.228 -22.165,50.865 -4.118,1.5 -8.102,2.387 -12.059,2.773 -1.371,0.11 -2.712,0.162 -4.046,0.162 -3.414,0 -6.785,-0.34 -10.515,-0.927 l 0.07,0.12 c -7.406,-1.25 -15.159,-3.745 -23.928,-6.87 l 0.568,42.593 -39.692,-1.542 0.157,-13.26 c 12.847,-4.481 23.742,-13.561 32.804,-23.886 -3.13,-3.267 -28.655,-28.9 -32.419,-32.822 l 1.298,-89.721 h 39.2 0.005 l 1.792,58.68 c 0,0 0.714,13.264 14.39,14.974 0.968,0.121 1.872,0.178 2.713,0.178 11.36,10e-4 11.468,-10.284 11.468,-10.284 0.597,-29.211 0.64,-50.352 0.129,-63.419 l 30.314,-0.092 c 0.727,1.589 1.846,2.956 3.303,3.884 0.621,2.195 2.052,4.042 3.942,5.207 l 1.723,33.626 c 0.371,12.359 0.687,22.298 0.948,29.761 m 269.936,-7.337 c -24.83,12.357 -40.237,17.708 -40.707,22.616 -0.495,5.171 3.847,7.154 9.171,7.154 4.276,0 9.187,-1.279 12.734,-3.212 l 30.972,31.099 c -10.718,9.318 -25.796,13.419 -40.755,13.419 -20.618,10e-4 -41.014,-7.786 -49.486,-20.437 3.736,-9.34 4.825,-19.637 4.725,-29.771 -2.605,-1.185 -7.96,-3.62 -10.582,-4.812 1.321,-32.748 65.269,-36.871 62.373,-53.442 -1.071,-5.388 -4.04,-7.618 -8.203,-7.618 -8.942,0 -23.401,10.284 -36.431,21.635 L 75.331,-77.871 c 14.612,-21.04 46.353,-34.742 74.214,-34.742 24.403,0 45.828,10.505 50.177,35.796 3.504,20.378 -8.568,40.228 -34.079,52.923 m -572.162,-29.209 c 10.321,13.227 9.184,70.617 6.791,97.115 l -43.304,9.736 1.794,-34.593 c 0.712,-31.256 -1.402,-47.317 -10.105,-47.317 -0.256,0 -0.519,0.014 -0.786,0.042 -0.231,-0.013 -0.459,-0.02 -0.683,-0.02 -9.034,0 -12.654,10.756 -12.641,32.179 l 3.715,51.888 -38.117,-5.91 13.952,-117.609 c 0.055,-0.046 0.113,-0.086 0.168,-0.131 8.646,-6.902 18.967,-10.14 29.863,-10.14 0.408,0 0.817,0.004 1.227,0.014 19.359,0.99 35.239,8.23 48.126,24.746 m 158.802,108.014 c -19.406,0.002 -38.263,-7.249 -48.465,-23.827 v 0 c 17.987,-16.672 9.079,-70.669 7.812,-100.466 8.053,-6.166 17.926,-8.735 28.048,-8.735 13.325,0 27.083,4.45 37.701,11.005 l -0.505,44.669 c -7.721,-7.508 -14.685,-10.51 -20.564,-10.51 -23.419,0 -29.673,47.601 1.436,47.601 1.636,0 3.372,-0.131 5.218,-0.408 4.925,-0.739 10.417,-3.495 16.655,-7.76 l 26.01,27.033 c -12.193,13.475 -33.069,21.397 -53.346,21.398 m -316.061,34.421 -19.665,-29.749 -25.358,29.623 -47.95,-10.969 -22.237,-189.546 h 61.767 l 12.267,72.848 21.511,-28.373 20.482,28.373 12.267,-72.848 h 61.767 l -25.123,211.784 z m 270.246,-99.261 c 0.252,-2.862 -3.719,-79.143 -3.719,-79.143 h -40.742 c 0,0.001 0.769,66.879 0.769,66.879 0.235,11.298 -2.888,18.527 -9.716,19.239 -1.181,0.123 -2.299,0.181 -3.35,0.181 -15.018,0.002 -17.17,-11.734 -17.17,-11.734 -1.709,-9.139 -2.479,-33.994 -2.307,-74.565 h -43.048 l -0.186,17.327 c 4.914,3.827 9.256,8.395 12.991,13.723 6.707,8.322 13.58,27.706 8.499,101.328 l 17.004,3.557 1.154,-9.865 c 13.324,3.928 25.025,5.937 35.104,6.023 7.247,-0.396 19.965,-1.833 33.128,-15.146 12.538,-12.681 11.589,-37.804 11.589,-37.804"
                     style="fill:#007aa6;fill-opacity:1;fill-rule:nonzero;stroke:none"
                     id="path31697" />
                </g>
                <g
                   id="g31699"
                   transform="translate(853.2537,1655.5298)">
                  <path
                     d="m 0,0 h 77.403 l 0.426,-7.906 H -0.426 Z m -113.642,172.231 -0.669,30.164 46.513,1.806 0.668,-30.164 z M 29.896,57.506 c 3.07,0 5.559,-2.49 5.559,-5.56 0,-3.07 -2.489,-5.56 -5.559,-5.56 -3.071,0 -5.56,2.49 -5.56,5.56 0,3.07 2.489,5.56 5.56,5.56 m 0,15.718 c 3.07,0 5.559,-2.489 5.559,-5.559 0,-3.07 -2.489,-5.56 -5.559,-5.56 -3.071,0 -5.56,2.49 -5.56,5.56 0,3.07 2.489,5.559 5.56,5.559 M 45.534,57.506 c 3.071,0 5.56,-2.49 5.56,-5.56 0,-3.07 -2.489,-5.56 -5.56,-5.56 -3.07,0 -5.559,2.49 -5.559,5.56 0,3.07 2.489,5.56 5.559,5.56 m 0,15.718 c 3.071,0 5.56,-2.489 5.56,-5.559 0,-3.07 -2.489,-5.56 -5.56,-5.56 -3.07,0 -5.559,2.49 -5.559,5.56 0,3.07 2.489,5.559 5.559,5.559 M 3.781,2.318 h 12.483 44.977 12.483 l -0.012,0.133 -0.133,2.686 h -6.002 c -0.988,14.367 -1.976,28.735 -2.964,43.102 -0.192,2.785 -0.353,5.03 -1.205,7.683 -2.625,8.174 -3.998,16.745 -4.094,25.329 -0.419,6.794 1.406,13.473 1.643,20.149 -0.25,3.33 -0.46,6.665 -0.689,9.997 -6.164,-5.184 -14.31,-7.735 -22.475,-7.735 -9.05,0 -18.123,3.136 -24.536,9.294 L 7.733,5.137 H 3.831 L 3.826,5.035 H 3.818 L 3.682,2.393 3.679,2.352 c 0,0 0.001,-10e-4 0.001,-10e-4 L 3.679,2.318 Z M -72.549,243.455 46.417,221.9 c -0.475,-8.169 3.328,-15.632 9.518,-20.164 l -3.137,-11.231 c -4.842,11.958 -14.566,22.493 -26.388,27.738 -5.441,2.413 -10.96,3.609 -16.419,3.609 -9.497,0 -18.814,-3.618 -27.216,-10.733 -6.472,-5.48 -13.118,-7.336 -19.152,-7.336 -8.647,0 -16.037,3.812 -19.855,6.233 -11.676,7.401 -19.601,19.558 -19.416,28.895 1.265,1.378 2.304,2.909 3.099,4.544 m -25.516,-8.898 c -0.536,-7.155 -1.098,-14.644 -0.057,-21.389 l -2.155,-6.743 20.39,0.613 -3.017,8.071 c 1,6.129 1.228,12.762 0.704,19.143 1.224,0.529 2.414,1.187 3.544,1.993 0.053,0.038 0.098,0.081 0.15,0.119 1.206,-9.819 9.171,-21.216 20.791,-28.582 6.759,-4.285 13.997,-6.628 20.934,-6.777 0.242,-0.005 0.484,-0.008 0.724,-0.008 7.73,0 14.805,2.673 21.04,7.952 7.897,6.687 16.606,10.089 25.441,10.088 4.994,0 10.031,-1.088 14.98,-3.283 12.371,-5.488 22.271,-17.239 26.032,-30.124 l -2.868,-10.254 c 4.347,-1.273 8.387,-3.35 11.97,-6.113 l 7.832,28.022 c 0.45,-0.026 0.896,-0.039 1.342,-0.039 11.988,0 22.187,9.166 23.222,21.331 0.814,9.561 -4.263,18.257 -12.207,22.53 -2.725,1.466 -5.783,2.417 -9.062,2.696 -0.07,0.006 -0.138,0.002 -0.207,0.008 -0.602,0.045 -1.2,0.068 -1.793,0.068 -7.578,0 -14.425,-3.677 -18.71,-9.452 l -122.163,22.135 c -0.569,2.251 -1.539,4.439 -2.968,6.443 -3.744,5.25 -9.645,8.047 -15.637,8.047 -3.854,0 -7.747,-1.158 -11.124,-3.567 -8.627,-6.152 -10.633,-18.133 -4.48,-26.76 1.958,-2.746 4.509,-4.813 7.352,-6.168 M 37.737,124.158 c -0.459,0 -0.922,0.02 -1.387,0.059 -8.879,0.756 -15.463,8.566 -14.708,17.445 0.716,8.414 7.766,14.767 16.058,14.767 0.458,0 0.921,-0.019 1.386,-0.059 8.879,-0.755 15.464,-8.565 14.709,-17.444 -0.717,-8.414 -7.766,-14.768 -16.058,-14.768 m 2.578,46.655 c -0.883,0.075 -1.76,0.112 -2.631,0.112 -15.741,0 -29.126,-12.063 -30.485,-28.034 -1.434,-16.856 11.067,-31.682 27.922,-33.117 0.884,-0.075 1.761,-0.112 2.632,-0.112 15.74,0 29.126,12.063 30.485,28.035 1.434,16.855 -11.067,31.682 -27.923,33.116"
                     style="fill:#db323e;fill-opacity:1;fill-rule:nonzero;stroke:none"
                     id="path31701" />
                </g>
                <g
                   id="g31703"
                   transform="translate(788.0137,1888.5128)">
                  <path
                     d="m 0,0 c 2.255,-5.09 7.113,-11.109 13.827,-15.365 2.848,-1.806 8.587,-4.834 15.036,-4.834 4.838,0 9.199,1.702 13.335,5.204 2.641,2.237 5.388,4.194 8.216,5.86 z m -10.408,5.927 c 1.265,1.379 2.304,2.91 3.099,4.545 l 118.966,-21.555 c -0.475,-8.169 3.328,-15.632 9.518,-20.164 l -3.137,-11.231 c -4.842,11.958 -14.566,22.493 -26.388,27.738 -5.441,2.413 -10.96,3.609 -16.419,3.609 -9.497,0 -18.814,-3.618 -27.216,-10.733 -6.472,-5.48 -13.118,-7.336 -19.152,-7.336 -8.647,0 -16.037,3.812 -19.856,6.233 -11.675,7.401 -19.6,19.558 -19.415,28.894 M 95.135,-186.597 c 3.071,0 5.56,2.49 5.56,5.56 0,3.07 -2.489,5.56 -5.56,5.56 -3.07,0 -5.559,-2.49 -5.559,-5.56 0,-3.07 2.489,-5.56 5.559,-5.56 m 9.191,109.984 c -0.465,0.04 -0.928,0.059 -1.386,0.059 -8.292,0 -15.342,-6.353 -16.058,-14.767 -0.756,-8.879 5.829,-16.689 14.708,-17.445 0.465,-0.039 0.928,-0.059 1.387,-0.059 8.292,0 15.341,6.354 16.058,14.768 0.755,8.879 -5.83,16.689 -14.709,17.444 m 6.448,-94.265 c 3.071,0 5.56,2.49 5.56,5.56 0,3.07 -2.489,5.559 -5.56,5.559 -3.07,0 -5.559,-2.489 -5.559,-5.559 0,-3.07 2.489,-5.56 5.559,-5.56 m 0,-15.719 c 3.071,0 5.56,2.49 5.56,5.56 0,3.07 -2.489,5.56 -5.56,5.56 -3.07,0 -5.559,-2.49 -5.559,-5.56 0,-3.07 2.489,-5.56 5.559,-5.56 m -15.639,15.719 c 3.071,0 5.56,2.49 5.56,5.56 0,3.07 -2.489,5.559 -5.56,5.559 -3.07,0 -5.559,-2.489 -5.559,-5.559 0,-3.07 2.489,-5.56 5.559,-5.56 m 100.488,58.404 c -13.826,0 -27.498,-10.678 -24.306,-27.761 l 43.175,19.092 c -4.905,5.961 -11.907,8.669 -18.869,8.669 m 141.337,-51.655 c -24.83,12.357 -40.238,17.707 -40.707,22.616 -0.495,5.171 3.846,7.154 9.171,7.154 4.276,0 9.186,-1.279 12.734,-3.213 l 30.972,31.099 c -10.718,9.319 -25.796,13.42 -40.755,13.42 -20.618,10e-4 -41.014,-7.787 -49.486,-20.438 3.736,-9.339 4.825,-19.636 4.725,-29.77 -2.605,-1.185 -7.96,-3.62 -10.582,-4.812 1.321,-32.748 65.269,-36.871 62.373,-53.443 -1.072,-5.388 -4.04,-7.617 -8.203,-7.617 -8.943,0 -23.401,10.284 -36.431,21.635 l -24.123,-30.608 c 14.611,-21.04 46.353,-34.743 74.214,-34.743 24.403,0 45.828,10.506 50.177,35.797 3.504,20.377 -8.568,40.228 -34.079,52.923 m -86.978,-30.83 c 0.853,0.767 1.709,1.528 2.541,2.32 0.665,0.632 3.992,3.12 3.992,3.975 l -9.736,32.798 c -5.919,-5.26 -11.855,-9.696 -17.73,-13.186 -8.828,-5.482 -18.407,-8.799 -27.545,-8.799 -6.999,0 -13.739,1.946 -19.682,6.355 0,0 73.507,33.423 73.541,33.439 0.287,4.773 -0.529,9.471 -0.774,10.77 -1.717,9.072 -5.705,17.528 -11.901,24.399 -9.992,11.079 -24.493,17.514 -39.198,19.06 -2.632,0.277 -5.265,0.416 -7.891,0.416 -12.932,0 -25.648,-3.381 -36.744,-10.361 -12.447,-7.83 -20.363,-21.072 -23.82,-35.157 0.046,-0.66 0.088,-1.32 0.137,-1.98 0.025,-0.33 0.031,-0.661 0.02,-0.992 -0.113,-3.194 -0.518,-6.222 -0.909,-9.15 -0.482,-3.606 -0.937,-7.013 -0.745,-10.126 0.009,-0.151 0.015,-0.302 0.016,-0.454 0.087,-7.748 1.32,-15.378 3.664,-22.677 0.664,-2.066 1.012,-3.931 1.237,-5.702 1.865,-4.39 4.152,-8.604 6.947,-12.471 11.667,-16.146 30.882,-25.599 50.658,-25.599 1.205,0 2.416,0.036 3.623,0.107 18.846,1.106 36.47,10.576 50.299,23.015 m -184.742,-38.024 -0.426,-7.906 h 78.255 l -0.426,7.906 z m 0.836,46.43 c 0.37,12.359 0.687,22.298 0.948,29.761 2.05,28.271 -5.339,45.228 -22.165,50.865 -4.118,1.5 -8.102,2.387 -12.059,2.773 -1.372,0.109 -2.712,0.161 -4.046,0.161 -3.414,0 -6.786,-0.339 -10.515,-0.926 l 0.07,0.12 c -7.406,-1.25 -15.16,-3.745 -23.929,-6.87 l 0.569,42.592 -39.692,-1.541 0.157,-13.26 c 12.847,-4.481 23.742,-13.561 32.804,-23.887 -3.13,-3.266 -28.655,-28.899 -32.419,-32.821 l 1.298,-89.721 h 39.2 0.004 l 1.793,58.68 c 0,0 0.714,13.264 14.389,14.974 0.969,0.121 1.873,0.177 2.714,0.177 11.36,0.002 11.468,-10.283 11.468,-10.283 0.597,-29.211 0.64,-50.352 0.128,-63.419 l 30.315,-0.092 c 0.727,1.589 1.846,2.956 3.302,3.883 0.622,2.196 2.052,4.042 3.943,5.208 z m -119.247,44.787 c -0.333,0.171 -0.658,0.364 -0.973,0.58 -5.412,3.7 -9.756,5.816 -12.911,6.289 -1.365,0.205 -2.671,0.309 -3.882,0.309 -10.619,0 -12.205,-8.293 -12.205,-13.236 0,-7.903 4.327,-16.363 10.769,-16.363 3.933,0 9.008,2.827 14.289,7.962 1.416,1.377 3.208,2.218 5.086,2.469 z m 4.107,8.011 26.009,27.033 c -12.193,13.475 -33.068,21.396 -53.345,21.398 -19.406,0.002 -38.263,-7.249 -48.465,-23.827 v 0 c 17.987,-16.672 9.079,-70.669 7.812,-100.467 8.053,-6.165 17.926,-8.734 28.048,-8.734 13.325,0 27.083,4.45 37.7,11.005 l -0.504,44.669 c -7.722,-7.508 -14.686,-10.511 -20.564,-10.511 -23.419,0 -29.673,47.602 1.436,47.602 1.636,0 3.372,-0.131 5.218,-0.408 4.925,-0.739 10.417,-3.495 16.655,-7.76 m -73.151,-16.409 c 0,0 0.949,25.123 -11.589,37.803 -13.164,13.314 -25.882,14.75 -33.128,15.146 -10.079,-0.085 -21.781,-2.095 -35.104,-6.022 l -1.154,9.864 -17.004,-3.556 c 5.081,-73.622 -1.792,-93.007 -8.499,-101.328 -3.735,-5.328 -8.077,-9.897 -12.991,-13.723 l 0.186,-17.327 h 43.048 c -0.172,40.571 0.597,65.426 2.307,74.565 0,0 2.152,11.735 17.17,11.734 1.051,0 2.169,-0.058 3.35,-0.181 6.828,-0.712 9.951,-7.941 9.716,-19.24 0,0 -0.77,-66.878 -0.769,-66.878 h 40.742 c 0,0 3.971,76.281 3.719,79.143 m -112.987,-43.175 c 10.321,13.227 9.184,70.618 6.791,97.116 l -43.304,9.736 1.793,-34.594 c 0.713,-31.255 -1.402,-47.316 -10.104,-47.316 -0.256,0 -0.519,0.014 -0.786,0.042 -0.231,-0.013 -0.46,-0.02 -0.683,-0.02 -9.035,0 -12.654,10.756 -12.641,32.178 l 3.714,51.888 -38.116,-5.909 13.952,-117.61 c 0.055,-0.046 0.113,-0.085 0.168,-0.131 8.646,-6.901 18.967,-10.139 29.862,-10.139 0.409,0 0.817,0.004 1.227,0.013 19.359,0.991 35.24,8.231 48.127,24.746 m -82.408,-58.205 -25.123,211.784 -49.728,-11.143 -19.665,-29.75 -25.358,29.624 -47.95,-10.969 -22.238,-189.546 h 61.768 l 12.267,72.848 21.511,-28.373 20.482,28.373 12.267,-72.848 z m 268.539,220.956 0.668,-30.164 46.513,1.806 -0.668,30.164 z m 182.549,-64.698 c 1.434,16.855 -11.067,31.682 -27.923,33.116 -0.883,0.075 -1.76,0.112 -2.631,0.112 -15.741,0 -29.126,-12.063 -30.485,-28.034 -1.434,-16.856 11.067,-31.682 27.922,-33.117 0.884,-0.075 1.761,-0.112 2.632,-0.112 15.74,0 29.126,12.063 30.485,28.035 m -64.558,-135.346 -0.002,-0.033 h 0.102 12.484 44.977 12.483 l -0.012,0.133 -0.133,2.686 h -6.002 c -0.988,14.367 -1.976,28.735 -2.965,43.102 -0.191,2.785 -0.352,5.03 -1.204,7.682 -2.625,8.175 -3.998,16.746 -4.094,25.33 -0.419,6.794 1.406,13.473 1.643,20.149 -0.251,3.33 -0.46,6.665 -0.689,9.997 -6.164,-5.184 -14.31,-7.735 -22.475,-7.735 -9.05,0 -18.123,3.136 -24.536,9.294 L 72.973,-227.846 H 69.07 l -0.004,-0.102 h -0.008 l -0.136,-2.642 -0.004,-0.041 c 10e-4,0 0.002,-0.001 0.002,-0.001 M 7.109,-58.746 c 0.062,-2.783 -1.174,-5.272 -3.126,-6.968 L 3.55,-98.121 c 4.583,1.381 8.92,2.465 13.261,3.197 0.488,0.083 0.976,0.123 1.459,0.123 0.023,0 0.046,0 0.07,-0.001 3.847,0.552 7.189,0.81 10.414,0.81 1.602,0 3.16,-0.062 4.919,-0.203 4.851,-0.473 9.518,-1.544 14.046,-3.197 10.207,-3.42 17.679,-9.927 22.436,-19.4 0.155,0.399 0.288,0.808 0.497,1.179 -5.244,7.379 -8.008,16.579 -7.182,26.284 1.731,20.339 19.061,36.272 39.454,36.272 v 0 c 0.922,0 1.85,-0.032 2.783,-0.097 l 1.565,5.593 c -3.537,9.598 -11.285,18.115 -20.278,22.104 -3.754,1.665 -7.566,2.51 -11.331,2.51 -6.786,10e-4 -13.389,-2.676 -19.624,-7.956 -7.902,-6.691 -16.938,-10.084 -26.856,-10.084 l -0.917,0.01 c -7.232,0.155 -14.65,2.189 -21.681,5.918 z M -40.177,7.742 c 1.958,-2.746 4.509,-4.813 7.352,-6.168 -0.536,-7.155 -1.098,-14.644 -0.057,-21.389 l -2.155,-6.743 20.39,0.613 -3.017,8.071 c 1,6.129 1.228,12.762 0.704,19.143 1.224,0.529 2.414,1.187 3.544,1.993 0.053,0.038 0.098,0.081 0.15,0.119 1.206,-9.819 9.171,-21.216 20.791,-28.582 6.758,-4.285 13.997,-6.628 20.934,-6.777 0.242,-0.005 0.483,-0.008 0.724,-0.008 7.73,0 14.805,2.673 21.04,7.952 7.897,6.687 16.606,10.089 25.441,10.088 4.994,0 10.031,-1.088 14.98,-3.283 12.371,-5.488 22.271,-17.239 26.032,-30.125 l -2.868,-10.253 c 4.347,-1.273 8.387,-3.351 11.97,-6.113 l 7.831,28.022 c 0.451,-0.026 0.897,-0.039 1.343,-0.039 11.988,0 22.187,9.166 23.222,21.331 0.814,9.561 -4.263,18.257 -12.207,22.53 -2.725,1.466 -5.783,2.417 -9.062,2.696 -0.07,0.006 -0.138,0.002 -0.208,0.008 -0.601,0.045 -1.199,0.068 -1.792,0.068 -7.578,0 -14.425,-3.677 -18.71,-9.452 L -5.969,23.579 c -0.568,2.251 -1.538,4.439 -2.967,6.443 -3.744,5.25 -9.645,8.047 -15.637,8.047 -3.854,0 -7.747,-1.158 -11.124,-3.567 -8.627,-6.152 -10.633,-18.133 -4.48,-26.76 m 420.087,-226.32 c -4.66,-27.095 -26.734,-43.272 -59.048,-43.272 -32.262,0 -65.82,15.877 -81.607,38.609 -1.773,2.553 -2.073,5.78 -0.935,8.554 -12.306,-7.27 -25.371,-11.525 -38.109,-12.273 -1.384,-0.081 -2.77,-0.122 -4.151,-0.122 -22.002,0 -42.747,10.035 -56.127,26.957 l 1.31,-19.051 c 3.004,-0.838 5.385,-3.197 6.238,-6.216 2.368,-1.512 3.988,-4.105 4.15,-7.106 l 0.426,-7.906 c 0.133,-2.467 -0.754,-4.881 -2.454,-6.675 -1.7,-1.794 -4.063,-2.81 -6.534,-2.81 H 64.814 c -2.472,0 -4.834,1.016 -6.534,2.81 -1.7,1.793 -2.587,4.207 -2.454,6.675 l 0.115,2.136 -29.175,0.089 c -2.443,0.007 -4.779,1.008 -6.47,2.772 -1.691,1.764 -2.593,4.139 -2.497,6.581 0.501,12.796 0.458,33.878 -0.13,62.754 -0.103,1.181 -0.352,1.596 -2.469,1.596 h -0.002 c -0.487,-0.001 -1.025,-0.037 -1.598,-0.109 -5.114,-0.639 -6.284,-4.334 -6.517,-6.565 l -1.79,-58.432 c -0.149,-4.862 -4.133,-8.726 -8.996,-8.726 h -39.2 c -4.921,0 -8.929,3.951 -9.001,8.871 l -0.163,11.334 c -11.527,-5.922 -24.68,-9.251 -36.938,-9.251 -10.165,0 -19.527,2.281 -27.47,6.647 -0.151,-2.933 -0.308,-5.956 -0.47,-9.068 -0.249,-4.783 -4.2,-8.533 -8.989,-8.533 h -40.742 c -1.398,0 -2.776,0.325 -4.025,0.95 -5.04,2.52 -4.997,6.284 -4.919,13.117 l 0.143,12.405 0.37,32.229 0.201,17.365 c 0.143,6.902 -1.26,9.742 -1.651,10.101 -0.841,0.087 -1.655,0.132 -2.417,0.132 -6.374,10e-4 -7.961,-3.126 -8.352,-4.553 -1.091,-6.029 -2.331,-23.571 -2.123,-72.707 0.01,-2.394 -0.934,-4.693 -2.623,-6.389 -1.689,-1.696 -3.984,-2.65 -6.378,-2.65 h -43.048 c -4.933,0 -8.947,3.971 -9.001,8.904 l -0.118,10.974 c -9.448,-5.169 -20.149,-8.025 -32.252,-8.644 -0.087,-0.004 -0.173,-0.008 -0.261,-0.009 -0.476,-0.011 -0.951,-0.016 -1.426,-0.016 -9.985,0 -19.394,2.364 -27.713,6.938 l 3.598,-30.323 c 0.302,-2.554 -0.502,-5.116 -2.21,-7.039 -1.708,-1.922 -4.157,-3.023 -6.729,-3.023 h -61.767 c -4.395,0 -8.147,3.173 -8.876,7.507 l -8.693,51.62 -7.881,-10.919 c -1.671,-2.313 -4.34,-3.698 -7.193,-3.731 -0.036,-0.001 -0.071,-0.001 -0.106,-0.001 -2.814,0 -5.47,1.317 -7.172,3.563 l -8.923,11.769 -8.807,-52.301 c -0.73,-4.334 -4.482,-7.507 -8.876,-7.507 h -61.768 c -2.57,0 -5.017,1.099 -6.725,3.019 -1.708,1.92 -2.514,4.479 -2.214,7.031 l 22.237,189.546 c 0.444,3.783 3.22,6.877 6.933,7.726 l 47.949,10.969 c 0.667,0.153 1.34,0.227 2.008,0.227 2.596,0 5.106,-1.125 6.837,-3.148 l 17.595,-20.554 13.082,19.79 c 1.283,1.942 3.269,3.311 5.541,3.82 l 49.727,11.143 c 0.652,0.146 1.312,0.218 1.968,0.218 1.848,0 3.668,-0.569 5.202,-1.655 2.079,-1.472 3.437,-3.756 3.737,-6.286 l 5.035,-42.444 36.959,5.73 c 0.46,0.071 0.921,0.106 1.379,0.106 2.243,0 4.424,-0.838 6.098,-2.379 2.016,-1.857 3.076,-4.531 2.881,-7.265 l -3.692,-51.564 c 0.024,-19.896 3.473,-22.819 3.427,-22.844 0,0 0.091,-0.002 0.183,-0.005 1.285,2.714 3.209,11.234 2.608,37.949 l -1.787,34.463 c -0.146,2.812 1.033,5.531 3.185,7.346 1.64,1.384 3.701,2.121 5.804,2.121 0.658,0 1.32,-0.072 1.974,-0.219 l 43.304,-9.736 c 1.02,-0.23 1.969,-0.628 2.819,-1.163 0.503,0.207 1.032,0.37 1.581,0.485 l 17.004,3.557 c 0.611,0.128 1.229,0.191 1.843,0.191 1.873,0 3.716,-0.585 5.26,-1.697 1.926,-1.387 3.222,-3.475 3.615,-5.803 10.005,2.36 19.157,3.588 27.306,3.657 0.026,0 0.051,0 0.076,0 0.164,0 0.328,-0.004 0.492,-0.013 8.88,-0.485 21.845,-2.548 35.206,-14.201 11.262,16.627 31.097,26.108 54.835,26.105 7.745,0 15.443,-1.021 22.769,-2.93 l -0.134,11.32 c -0.272,0.203 -0.555,0.39 -0.805,0.625 -1.758,1.654 -2.778,3.944 -2.831,6.357 l -0.668,30.164 c -0.109,4.911 3.74,9.003 8.649,9.193 l 6.602,0.257 0.75,2.346 c -0.585,5.258 -0.432,10.704 -0.111,15.878 -2.02,1.618 -3.817,3.512 -5.326,5.628 -4.372,6.13 -6.095,13.595 -4.852,21.021 1.243,7.426 5.304,13.923 11.434,18.295 4.806,3.428 10.46,5.24 16.35,5.24 9.101,0 17.686,-4.42 22.965,-11.822 0.844,-1.183 1.591,-2.424 2.237,-3.718 l 112.26,-20.34 c 5.937,5.527 13.826,8.706 22.016,8.706 0.75,0 1.505,-0.026 2.274,-0.08 0.17,-0.006 0.351,-0.016 0.489,-0.028 4.425,-0.377 8.652,-1.634 12.563,-3.738 11.367,-6.114 18.006,-18.369 16.912,-31.22 -1.249,-14.677 -12.472,-26.539 -26.574,-29.069 l -6.122,-21.905 c -0.163,-0.586 -0.384,-1.147 -0.656,-1.677 6.17,-7.646 9.524,-17.577 8.659,-28.111 3.479,3.759 7.333,7.085 11.612,9.777 12.213,7.682 26.576,11.743 41.537,11.743 2.924,0 5.896,-0.156 8.832,-0.465 17.633,-1.854 34.013,-9.867 44.941,-21.984 2.023,-2.243 3.862,-4.648 5.507,-7.192 11.118,12.292 31.381,20.001 53.496,20 18.499,0 35.07,-5.551 46.661,-15.628 1.881,-1.635 2.999,-3.978 3.089,-6.47 0.09,-2.491 -0.858,-4.908 -2.617,-6.674 l -30.972,-31.099 c -1.152,-1.156 -2.557,-1.946 -4.058,-2.346 0.52,-0.243 1.037,-0.485 1.549,-0.725 5.529,-2.587 11.795,-5.519 18.943,-9.076 28.661,-14.263 43.217,-37.63 38.94,-62.508"
                     style="fill:#ffffff;fill-opacity:1;fill-rule:nonzero;stroke:none"
                     id="path31705" />
                </g>
                <g
                   id="g31707"
                   transform="translate(529.0485,1614.7222)">
                  <path
                     d="M 0,0 -8.685,-14.734 -17.528,0 h -3.405 v -22.229 h 3.945 v 14.543 l 7.318,-12.002 h 1.844 l 7.318,12.193 0.03,-14.734 H 3.438 L 3.405,0 Z"
                     style="fill:#007aa6;fill-opacity:1;fill-rule:nonzero;stroke:none"
                     id="path31709" />
                </g>
                <g
                   id="g31711"
                   transform="translate(552.7487,1600.8759)">
                  <path
                     d="M 0,0 4.169,9.717 8.369,0 Z M 2.164,13.846 -7.858,-8.383 h 4.265 L -1.4,-3.238 H 9.736 l 2.226,-5.145 h 4.327 L 6.238,13.846 Z"
                     style="fill:#007aa6;fill-opacity:1;fill-rule:nonzero;stroke:none"
                     id="path31713" />
                </g>
                <g
                   id="g31715"
                   transform="translate(598.1328,1599.5902)">
                  <path
                     d="m 0,0 c -0.668,-1.154 -1.623,-2.042 -2.862,-2.666 -1.242,-0.626 -2.68,-0.937 -4.311,-0.937 h -5.408 v 15.241 h 5.408 c 1.631,0 3.069,-0.314 4.311,-0.937 C -1.623,10.077 -0.668,9.186 0,8.034 0.669,6.88 1.001,5.542 1.001,4.017 1.001,2.492 0.669,1.155 0,0 m -0.652,13.751 c -1.845,0.921 -3.957,1.381 -6.33,1.381 h -9.736 V -7.097 h 9.736 c 2.373,0 4.485,0.46 6.33,1.381 1.845,0.92 3.277,2.222 4.295,3.905 1.017,1.683 1.528,3.625 1.528,5.828 0,2.201 -0.511,4.143 -1.528,5.826 -1.018,1.683 -2.45,2.985 -4.295,3.908"
                     style="fill:#007aa6;fill-opacity:1;fill-rule:nonzero;stroke:none"
                     id="path31717" />
                </g>
                <g
                   id="g31719"
                   transform="translate(621.372,1602.0823)">
                  <path
                     d="M 0,0 H 10.753 V 3.399 H 0 V 9.178 H 12.12 V 12.64 H -4.136 V -9.589 h 16.704 v 3.461 H 0 Z"
                     style="fill:#007aa6;fill-opacity:1;fill-rule:nonzero;stroke:none"
                     id="path31721" />
                </g>
                <g
                   id="g31723"
                   transform="translate(677.2366,1595.7316)">
                  <path
                     d="M 0,0 H -6.679 V 6.417 H 0 C 3.203,6.417 4.805,5.346 4.805,3.208 4.805,1.07 3.203,0 0,0 m -6.679,15.752 h 5.852 c 1.444,0 2.552,-0.261 3.327,-0.779 0.772,-0.52 1.159,-1.285 1.159,-2.301 C 3.659,11.675 3.272,10.918 2.5,10.401 1.725,9.881 0.617,9.622 -0.827,9.622 H -6.679 Z M 4.963,8.32 c 0.892,0.466 1.591,1.122 2.101,1.969 0.508,0.847 0.764,1.819 0.764,2.922 0,1.798 -0.712,3.211 -2.134,4.238 -1.421,1.027 -3.446,1.542 -6.076,1.542 H -10.816 V -3.238 H 0.256 c 2.841,0 5.005,0.523 6.489,1.571 1.484,1.049 2.226,2.536 2.226,4.461 0,1.397 -0.36,2.568 -1.08,3.511 C 7.171,7.247 6.194,7.917 4.963,8.32"
                     style="fill:#007aa6;fill-opacity:1;fill-rule:nonzero;stroke:none"
                     id="path31725" />
                </g>
                <g
                   id="g31727"
                   transform="translate(707.3655,1603.8937)">
                  <path
                     d="m 0,0 -6.521,10.828 h -4.423 L -2.197,-3.62 v -7.781 H 1.94 v 7.844 l 8.718,14.385 H 6.587 Z"
                     style="fill:#007aa6;fill-opacity:1;fill-rule:nonzero;stroke:none"
                     id="path31729" />
                </g>
                <g
                   id="g31731"
                   transform="translate(757.5681,1602.3685)">
                  <path
                     d="M 0,0 H -4.835 V 8.859 H 0 C 1.803,8.859 3.171,8.478 4.104,7.716 5.037,6.956 5.503,5.864 5.503,4.447 5.503,3.028 5.037,1.931 4.104,1.16 3.171,0.387 1.803,0 0,0 M 8.448,0.128 C 9.263,1.334 9.673,2.772 9.673,4.447 9.673,6.076 9.291,7.484 8.527,8.668 7.763,9.856 6.666,10.766 5.233,11.4 3.801,12.035 2.12,12.354 0.191,12.354 H -8.971 V -9.875 h 4.136 v 6.479 h 5.026 c 0.382,0 0.668,0.008 0.859,0.03 l 4.549,-6.509 h 4.453 l -5.121,7.304 c 1.528,0.591 2.698,1.493 3.517,2.699"
                     style="fill:#007aa6;fill-opacity:1;fill-rule:nonzero;stroke:none"
                     id="path31733" />
                </g>
                <g
                   id="g31735"
                   transform="translate(798.6056,1599.5902)">
                  <path
                     d="m 0,0 c -0.679,-1.195 -1.613,-2.127 -2.799,-2.794 -1.19,-0.667 -2.524,-0.999 -4.009,-0.999 -1.484,0 -2.821,0.332 -4.008,0.999 -1.19,0.667 -2.123,1.599 -2.8,2.794 -0.679,1.196 -1.02,2.536 -1.02,4.017 0,1.482 0.341,2.822 1.02,4.017 0.677,1.196 1.61,2.127 2.8,2.795 1.187,0.667 2.524,0.999 4.008,0.999 1.485,0 2.819,-0.332 4.009,-0.999 C -1.613,10.161 -0.679,9.23 0,8.034 0.679,6.839 1.018,5.499 1.018,4.017 1.018,2.536 0.679,1.196 0,0 m -0.669,13.971 c -1.825,0.987 -3.871,1.477 -6.139,1.477 -2.27,0 -4.316,-0.49 -6.142,-1.477 -1.822,-0.983 -3.255,-2.35 -4.294,-4.096 -1.04,-1.745 -1.559,-3.698 -1.559,-5.858 0,-2.159 0.519,-4.112 1.559,-5.857 1.039,-1.749 2.472,-3.114 4.294,-4.097 1.826,-0.986 3.872,-1.479 6.142,-1.479 2.268,0 4.314,0.493 6.139,1.479 1.823,0.983 3.256,2.342 4.295,4.08 1.04,1.735 1.558,3.693 1.558,5.874 0,2.179 -0.518,4.137 -1.558,5.875 -1.039,1.735 -2.472,3.096 -4.295,4.079"
                     style="fill:#007aa6;fill-opacity:1;fill-rule:nonzero;stroke:none"
                     id="path31737" />
                </g>
                <g
                   id="g31739"
                   transform="translate(828.5433,1595.7316)">
                  <path
                     d="M 0,0 H -6.68 V 6.417 H 0 C 3.204,6.417 4.805,5.346 4.805,3.208 4.805,1.07 3.204,0 0,0 m -6.68,15.752 h 5.853 c 1.443,0 2.552,-0.261 3.327,-0.779 0.772,-0.52 1.159,-1.285 1.159,-2.301 C 3.659,11.675 3.272,10.918 2.5,10.401 1.725,9.881 0.616,9.622 -0.827,9.622 H -6.68 Z M 4.963,8.32 c 0.892,0.466 1.591,1.122 2.101,1.969 0.508,0.847 0.764,1.819 0.764,2.922 0,1.798 -0.712,3.211 -2.134,4.238 -1.421,1.027 -3.446,1.542 -6.076,1.542 H -10.816 V -3.238 H 0.256 c 2.841,0 5.005,0.523 6.489,1.571 1.484,1.049 2.226,2.536 2.226,4.461 0,1.397 -0.36,2.568 -1.08,3.511 C 7.171,7.247 6.194,7.917 4.963,8.32"
                     style="fill:#007aa6;fill-opacity:1;fill-rule:nonzero;stroke:none"
                     id="path31741" />
                </g>
                <g
                   id="g31743"
                   transform="translate(868.6913,1599.5902)">
                  <path
                     d="m 0,0 c -0.679,-1.195 -1.612,-2.127 -2.799,-2.794 -1.19,-0.667 -2.525,-0.999 -4.009,-0.999 -1.484,0 -2.821,0.332 -4.008,0.999 -1.189,0.667 -2.123,1.599 -2.8,2.794 -0.679,1.196 -1.02,2.536 -1.02,4.017 0,1.482 0.341,2.822 1.02,4.017 0.677,1.196 1.611,2.127 2.8,2.795 1.187,0.667 2.524,0.999 4.008,0.999 1.484,0 2.819,-0.332 4.009,-0.999 C -1.612,10.161 -0.679,9.23 0,8.034 0.679,6.839 1.018,5.499 1.018,4.017 1.018,2.536 0.679,1.196 0,0 m -0.668,13.971 c -1.826,0.987 -3.872,1.477 -6.14,1.477 -2.27,0 -4.316,-0.49 -6.142,-1.477 -1.822,-0.983 -3.255,-2.35 -4.295,-4.096 -1.039,-1.745 -1.557,-3.698 -1.557,-5.858 0,-2.159 0.518,-4.112 1.557,-5.857 1.04,-1.749 2.473,-3.114 4.295,-4.097 1.826,-0.986 3.872,-1.479 6.142,-1.479 2.268,0 4.314,0.493 6.14,1.479 1.822,0.983 3.255,2.342 4.294,4.08 1.04,1.735 1.559,3.693 1.559,5.874 0,2.179 -0.519,4.137 -1.559,5.875 -1.039,1.735 -2.472,3.096 -4.294,4.079"
                     style="fill:#007aa6;fill-opacity:1;fill-rule:nonzero;stroke:none"
                     id="path31745" />
                </g>
                <g
                   id="g31747"
                   transform="translate(884.6317,1611.2279)">
                  <path
                     d="m 0,0 h 7.381 v -18.735 h 4.133 V 0 h 7.381 V 3.494 H 0 Z"
                     style="fill:#007aa6;fill-opacity:1;fill-rule:nonzero;stroke:none"
                     id="path31749" />
                </g>
                <g
                   id="g31751"
                   transform="translate(930.7442,1602.2106)">
                  <path
                     d="m 0,0 c -0.753,0.847 -1.659,1.476 -2.72,1.89 -1.062,0.411 -2.418,0.809 -4.071,1.19 -1.212,0.297 -2.164,0.561 -2.865,0.793 -0.699,0.234 -1.277,0.55 -1.733,0.953 -0.455,0.403 -0.685,0.921 -0.685,1.555 0,0.912 0.399,1.642 1.193,2.192 0.796,0.55 2.011,0.826 3.642,0.826 0.999,0 2.027,-0.148 3.086,-0.444 1.062,-0.297 2.079,-0.73 3.056,-1.302 l 1.304,3.208 c -0.955,0.635 -2.09,1.119 -3.405,1.46 -1.315,0.337 -2.652,0.507 -4.008,0.507 -1.951,0 -3.602,-0.297 -4.947,-0.888 -1.348,-0.594 -2.355,-1.392 -3.023,-2.397 -0.668,-1.008 -1.002,-2.124 -1.002,-3.35 0,-1.462 0.377,-2.62 1.13,-3.478 0.753,-0.858 1.654,-1.487 2.704,-1.89 1.051,-0.403 2.423,-0.803 4.12,-1.206 1.209,-0.297 2.164,-0.562 2.862,-0.796 0.702,-0.231 1.278,-0.555 1.736,-0.967 0.455,-0.413 0.682,-0.936 0.682,-1.571 0,-0.869 -0.407,-1.569 -1.225,-2.097 -0.816,-0.528 -2.052,-0.792 -3.706,-0.792 -1.336,0 -2.665,0.226 -3.992,0.68 -1.326,0.455 -2.444,1.044 -3.355,1.762 l -1.433,-3.205 c 0.933,-0.806 2.199,-1.452 3.801,-1.937 1.601,-0.487 3.263,-0.732 4.979,-0.732 1.951,0 3.605,0.297 4.964,0.891 1.356,0.591 2.371,1.386 3.039,2.38 0.666,0.996 1.002,2.108 1.002,3.336 C 1.13,-1.991 0.753,-0.847 0,0"
                     style="fill:#007aa6;fill-opacity:1;fill-rule:nonzero;stroke:none"
                     id="path31753" />
                </g>
                <g
                   id="g31755"
                   transform="translate(1043.3784,1811.8971)">
                  <path
                     d="m 0,0 c -8.068,0 -14.609,6.541 -14.609,14.61 0,8.068 6.541,14.609 14.609,14.609 8.069,0 14.61,-6.541 14.61,-14.609 C 14.61,6.541 8.069,0 0,0 m 0,33.189 c -10.244,0 -18.579,-8.335 -18.579,-18.579 0,-10.245 8.335,-18.58 18.579,-18.58 10.245,0 18.579,8.335 18.579,18.58 0,10.244 -8.334,18.579 -18.579,18.579"
                     style="fill:#007aa6;fill-opacity:1;fill-rule:nonzero;stroke:none"
                     id="path31757" />
                </g>
                <g
                   id="g31759"
                   transform="translate(1045.5239,1828.2573)">
                  <path
                     d="m 0,0 c -0.408,-0.366 -1.02,-0.548 -1.837,-0.548 h -2.194 v 4.181 h 2.194 C -1.02,3.633 -0.408,3.451 0,3.085 0.406,2.719 0.609,2.205 0.609,1.543 0.609,0.88 0.406,0.366 0,0 m 5.812,-1.797 c 0.577,0.952 0.866,2.065 0.866,3.34 0,1.359 -0.331,2.549 -0.994,3.569 C 5.022,6.132 4.078,6.914 2.854,7.457 1.63,8.003 0.193,8.273 -1.455,8.273 h -8.594 V -9.574 h 6.018 v 4.486 h 1.633 l 3.034,-4.486 h 6.426 l -3.75,5.506 c 1.09,0.562 1.922,1.317 2.5,2.271"
                     style="fill:#007aa6;fill-opacity:1;fill-rule:nonzero;stroke:none"
                     id="path31761" />
                </g>
                <g
                   id="g31763"
                   transform="translate(1127.178,1219.8164)" />
                <g
                   id="g31767"
                   transform="translate(1127.178,1219.8164)" />
              </g>
            </g>
            <text
               xml:space="preserve"
               id="text34812"
               style="font-style:normal;font-weight:normal;font-size:30px;line-height:1.25;font-family:sans-serif;white-space:pre;shape-inside:url(#rect34814);fill:#000000;fill-opacity:1;stroke:none;" />
            <text
               xml:space="preserve"
               id="text34818"
               style="font-style:normal;font-weight:normal;font-size:30px;line-height:1.25;font-family:sans-serif;white-space:pre;shape-inside:url(#rect34820);fill:#000000;fill-opacity:1;stroke:none;" />
          </g>
        </g>
      </g>
    </g>
  </g>
</svg>
