<?xml version="1.0" encoding="UTF-8" standalone="no"?>
<svg
   xmlns:dc="http://purl.org/dc/elements/1.1/"
   xmlns:cc="http://creativecommons.org/ns#"
   xmlns:rdf="http://www.w3.org/1999/02/22-rdf-syntax-ns#"
   xmlns:svg="http://www.w3.org/2000/svg"
   xmlns="http://www.w3.org/2000/svg"
   xmlns:sodipodi="http://sodipodi.sourceforge.net/DTD/sodipodi-0.dtd"
   xmlns:inkscape="http://www.inkscape.org/namespaces/inkscape"
   width="144.49707mm"
   height="162.98051mm"
   viewBox="0 0 144.49707 162.98051"
   version="1.1"
   id="svg8"
   inkscape:version="1.0.1 (3bc2e81, 2020-09-07)"
   inkscape:export-filename="/home/avena/bitmap.png"
   inkscape:export-xdpi="54.959492"
   inkscape:export-ydpi="54.959492">
  <defs
     id="defs2">
    <clipPath
       clipPathUnits="userSpaceOnUse"
       id="clipPath82">
      <path
         d="M 0,2560 H 1440 V 0 H 0 Z"
         id="path80" />
    </clipPath>
    <clipPath
       clipPathUnits="userSpaceOnUse"
       id="clipPath90">
      <path
         d="M 12.5697,2551.36 H 1427.43 V 8.63821 H 12.5697 Z"
         id="path88" />
    </clipPath>
    <clipPath
       clipPathUnits="userSpaceOnUse"
       id="clipPath5318">
      <path
         d="M 0,2560 H 1440 V 0 H 0 Z"
         id="path5316" />
    </clipPath>
    <clipPath
       clipPathUnits="userSpaceOnUse"
       id="clipPath5526">
      <path
         d="M 0,2560 H 1440 V 0 H 0 Z"
         id="path5524" />
    </clipPath>
    <clipPath
       clipPathUnits="userSpaceOnUse"
       id="clipPath5614">
      <path
         d="M 0,2560 H 1440 V 0 H 0 Z"
         id="path5612" />
    </clipPath>
    <clipPath
       clipPathUnits="userSpaceOnUse"
       id="clipPath5686">
      <path
         d="m 747.486,2374.824 c 0,-32.711 26.517,-59.228 59.228,-59.228 v 0 c 32.711,0 59.228,26.517 59.228,59.228 v 0 c 0,32.711 -26.517,59.228 -59.228,59.228 v 0 c -32.711,0 -59.228,-26.517 -59.228,-59.228"
         id="path5684" />
    </clipPath>
    <clipPath
       clipPathUnits="userSpaceOnUse"
       id="clipPath5766">
      <path
         d="M 0,2560 H 1440 V 0 H 0 Z"
         id="path5764" />
    </clipPath>
    <clipPath
       clipPathUnits="userSpaceOnUse"
       id="clipPath8961">
      <path
         d="M 0,2560 H 1440 V 0 H 0 Z"
         id="path8959" />
    </clipPath>
    <clipPath
       clipPathUnits="userSpaceOnUse"
       id="clipPath8969">
      <path
         d="M 12.5697,2551.36 H 1427.43 V 8.63821 H 12.5697 Z"
         id="path8967" />
    </clipPath>
    <clipPath
       clipPathUnits="userSpaceOnUse"
       id="clipPath14197">
      <path
         d="M 0,2560 H 1440 V 0 H 0 Z"
         id="path14195" />
    </clipPath>
    <clipPath
       clipPathUnits="userSpaceOnUse"
       id="clipPath14405">
      <path
         d="M 0,2560 H 1440 V 0 H 0 Z"
         id="path14403" />
    </clipPath>
    <clipPath
       clipPathUnits="userSpaceOnUse"
       id="clipPath14493">
      <path
         d="M 0,2560 H 1440 V 0 H 0 Z"
         id="path14491" />
    </clipPath>
    <clipPath
       clipPathUnits="userSpaceOnUse"
       id="clipPath14565">
      <path
         d="m 747.486,2374.824 c 0,-32.711 26.517,-59.228 59.228,-59.228 v 0 c 32.711,0 59.228,26.517 59.228,59.228 v 0 c 0,32.711 -26.517,59.228 -59.228,59.228 v 0 c -32.711,0 -59.228,-26.517 -59.228,-59.228"
         id="path14563" />
    </clipPath>
    <clipPath
       clipPathUnits="userSpaceOnUse"
       id="clipPath14645">
      <path
         d="M 0,2560 H 1440 V 0 H 0 Z"
         id="path14643" />
    </clipPath>
    <clipPath
       clipPathUnits="userSpaceOnUse"
       id="clipPath17596">
      <path
         d="M 0,2560 H 1440 V 0 H 0 Z"
         id="path17594" />
    </clipPath>
    <clipPath
       clipPathUnits="userSpaceOnUse"
       id="clipPath17604">
      <path
         d="M 12.5697,2551.36 H 1427.43 V 8.63821 H 12.5697 Z"
         id="path17602" />
    </clipPath>
    <clipPath
       clipPathUnits="userSpaceOnUse"
       id="clipPath22832">
      <path
         d="M 0,2560 H 1440 V 0 H 0 Z"
         id="path22830" />
    </clipPath>
    <clipPath
       clipPathUnits="userSpaceOnUse"
       id="clipPath23040">
      <path
         d="M 0,2560 H 1440 V 0 H 0 Z"
         id="path23038" />
    </clipPath>
    <clipPath
       clipPathUnits="userSpaceOnUse"
       id="clipPath23128">
      <path
         d="M 0,2560 H 1440 V 0 H 0 Z"
         id="path23126" />
    </clipPath>
    <clipPath
       clipPathUnits="userSpaceOnUse"
       id="clipPath23200">
      <path
         d="m 747.486,2374.824 c 0,-32.711 26.517,-59.228 59.228,-59.228 v 0 c 32.711,0 59.228,26.517 59.228,59.228 v 0 c 0,32.711 -26.517,59.228 -59.228,59.228 v 0 c -32.711,0 -59.228,-26.517 -59.228,-59.228"
         id="path23198" />
    </clipPath>
    <clipPath
       clipPathUnits="userSpaceOnUse"
       id="clipPath23280">
      <path
         d="M 0,2560 H 1440 V 0 H 0 Z"
         id="path23278" />
    </clipPath>
  </defs>
  <sodipodi:namedview
     id="base"
     pagecolor="#ffffff"
     bordercolor="#666666"
     borderopacity="1.0"
     inkscape:pageopacity="0.0"
     inkscape:pageshadow="2"
     inkscape:zoom="0.35"
     inkscape:cx="158.63052"
     inkscape:cy="-93.749962"
     inkscape:document-units="mm"
     inkscape:current-layer="g17588"
     inkscape:document-rotation="0"
     showgrid="false"
     fit-margin-top="0"
     fit-margin-left="0"
     fit-margin-right="0"
     fit-margin-bottom="0"
     inkscape:window-width="1848"
     inkscape:window-height="1016"
     inkscape:window-x="72"
     inkscape:window-y="387"
     inkscape:window-maximized="1" />
  <metadata
     id="metadata5">
    <rdf:RDF>
      <cc:Work
         rdf:about="">
        <dc:format>image/svg+xml</dc:format>
        <dc:type
           rdf:resource="http://purl.org/dc/dcmitype/StillImage" />
        <dc:title></dc:title>
      </cc:Work>
    </rdf:RDF>
  </metadata>
  <g
     inkscape:label="Layer 1"
     inkscape:groupmode="layer"
     id="layer1"
     transform="translate(-12.214844,151.25878)">
    <g
       id="g74"
       inkscape:label="munchies-interface"
       transform="matrix(0.35277777,0,0,-0.35277777,-152.89942,440.60254)">
      <g
         id="g8953"
         inkscape:label="munchies-interface"
         transform="translate(-212.97837,809.56294)">
        <g
           id="g17588"
           inkscape:label="munchies-interface"
           transform="translate(-18.662622,-261.41221)">
          <g
             id="g23122"
             transform="translate(79.777616,-30.247324)">
            <g
               id="g23124"
               clip-path="url(#clipPath23128)"
               transform="translate(104.70272,62.177649)">
              <g
                 id="g23130"
                 transform="translate(674.9291,931.1191)">
                <path
                   d="m 0,0 c 0,9.643 7.817,17.459 17.459,17.459 9.643,0 17.46,-7.816 17.46,-17.459 v -2.796 -79.927 c 0,9.571 7.758,17.33 17.329,17.33 9.571,0 17.33,-7.759 17.33,-17.33 v -18.235 c 0,9.571 7.759,17.33 17.33,17.33 9.57,0 17.329,-7.759 17.329,-17.33 v -18.235 c 0,9.571 7.759,17.33 17.33,17.33 9.571,0 17.329,-7.759 17.329,-17.33 v -87.095 c 0,-47.324 -31.083,-85.687 -78.407,-85.687 -34.609,0 -64.599,11.369 -76.694,41.516 -9.198,22.924 -28.452,68.96 -32.36,93.349 -1.759,10.981 9.015,20.136 20.136,20.136 6.743,0 13.49,-2.837 16.366,-8.402 C -7.804,-153.619 0,-180.474 0,-180.474 V -11.33 Z"
                   style="fill:#ffffff;fill-opacity:1;fill-rule:nonzero;stroke:none"
                   id="path23132" />
              </g>
              <g
                 id="g23134"
                 transform="translate(674.9291,931.1191)">
                <path
                   d="m 0,0 c 0,9.643 7.817,17.459 17.459,17.459 9.643,0 17.46,-7.816 17.46,-17.459 v -2.796 -79.927 c 0,9.571 7.758,17.33 17.329,17.33 9.571,0 17.33,-7.759 17.33,-17.33 v -18.235 c 0,9.571 7.759,17.33 17.33,17.33 9.57,0 17.329,-7.759 17.329,-17.33 v -18.235 c 0,9.571 7.759,17.33 17.33,17.33 9.571,0 17.329,-7.759 17.329,-17.33 v -87.095 c 0,-47.324 -31.083,-85.687 -78.407,-85.687 -34.609,0 -64.599,11.369 -76.694,41.516 -9.198,22.924 -28.452,68.96 -32.36,93.349 -1.759,10.981 9.015,20.136 20.136,20.136 6.743,0 13.49,-2.837 16.366,-8.402 C -7.804,-153.619 0,-180.474 0,-180.474 V -11.33 Z"
                   style="fill:none;stroke:#343442;stroke-width:7;stroke-linecap:round;stroke-linejoin:round;stroke-miterlimit:10;stroke-dasharray:none;stroke-opacity:1"
                   id="path23136" />
              </g>
              <g
                 id="g23138"
                 transform="translate(674.9291,931.1191)">
                <path
                   d="m 0,0 c 0,9.643 7.817,17.459 17.459,17.459 9.643,0 17.46,-7.816 17.46,-17.459 v -2.796 -79.927 c 0,9.571 7.758,17.33 17.329,17.33 9.571,0 17.33,-7.759 17.33,-17.33 v -18.235 c 0,9.571 7.759,17.33 17.33,17.33 9.57,0 17.329,-7.759 17.329,-17.33 v -18.235 c 0,9.571 7.759,17.33 17.33,17.33 9.571,0 17.329,-7.759 17.329,-17.33 v -87.095 c 0,-47.324 -31.083,-85.687 -78.407,-85.687 -34.609,0 -64.599,11.369 -76.694,41.516 -9.198,22.924 -28.452,68.96 -32.36,93.349 -1.759,10.981 9.015,20.136 20.136,20.136 6.743,0 13.49,-2.837 16.366,-8.402 C -7.804,-153.619 0,-180.474 0,-180.474 V -11.33 Z"
                   style="fill:none;stroke:#000000;stroke-width:7;stroke-linecap:round;stroke-linejoin:round;stroke-miterlimit:10;stroke-dasharray:none;stroke-opacity:1"
                   id="path23140" />
              </g>
              <g
                 id="g23142"
                 transform="translate(622.2004,892.8361)">
                <path
                   d="m 0,0 c 0,54.013 43.786,97.8 97.8,97.8 54.013,0 97.799,-43.787 97.799,-97.8"
                   style="fill:none;stroke:#ffffff;stroke-width:14;stroke-linecap:round;stroke-linejoin:round;stroke-miterlimit:10;stroke-dasharray:none;stroke-opacity:1"
                   id="path23144" />
              </g>
              <g
                 id="g23146"
                 transform="translate(622.2004,892.8361)">
                <path
                   d="m 0,0 c 0,54.013 43.786,97.8 97.8,97.8 54.013,0 97.799,-43.787 97.799,-97.8"
                   style="fill:none;stroke:#343442;stroke-width:7;stroke-linecap:round;stroke-linejoin:round;stroke-miterlimit:10;stroke-dasharray:none;stroke-opacity:1"
                   id="path23148" />
              </g>
              <g
                 id="g23150"
                 transform="translate(867.0741,760.7061)">
                <path
                   d="m 0,0 c 31.521,35.051 50.725,81.39 50.725,132.13 0,109.067 -88.732,197.8 -197.799,197.8 -109.067,0 -197.799,-88.733 -197.799,-197.8 0,-50.74 19.204,-97.079 50.725,-132.13"
                   style="fill:none;stroke:#ffffff;stroke-width:14;stroke-linecap:round;stroke-linejoin:round;stroke-miterlimit:10;stroke-dasharray:none;stroke-opacity:1"
                   id="path23152" />
              </g>
              <g
                 id="g23154"
                 transform="translate(867.0741,760.7061)">
                <path
                   d="m 0,0 c 31.521,35.051 50.725,81.39 50.725,132.13 0,109.067 -88.732,197.8 -197.799,197.8 -109.067,0 -197.799,-88.733 -197.799,-197.8 0,-50.74 19.204,-97.079 50.725,-132.13"
                   style="fill:none;stroke:#343442;stroke-width:7;stroke-linecap:round;stroke-linejoin:round;stroke-miterlimit:10;stroke-dasharray:none;stroke-opacity:1"
                   id="path23156" />
              </g>
              <g
                 id="g23158"
                 transform="translate(840.9278,807.9451)">
                <path
                   d="m 0,0 c 16.924,24.037 26.872,53.324 26.872,84.891 0,81.497 -66.303,147.8 -147.8,147.8 -81.497,0 -147.799,-66.303 -147.799,-147.8 0,-31.567 9.947,-60.854 26.871,-84.891"
                   style="fill:none;stroke:#ffffff;stroke-width:14;stroke-linecap:round;stroke-linejoin:round;stroke-miterlimit:10;stroke-dasharray:none;stroke-opacity:1"
                   id="path23160" />
              </g>
              <g
                 id="g23162"
                 transform="translate(840.9278,807.9451)">
                <path
                   d="m 0,0 c 16.924,24.037 26.872,53.324 26.872,84.891 0,81.497 -66.303,147.8 -147.8,147.8 -81.497,0 -147.799,-66.303 -147.799,-147.8 0,-31.567 9.947,-60.854 26.871,-84.891"
                   style="fill:none;stroke:#343442;stroke-width:7;stroke-linecap:round;stroke-linejoin:round;stroke-miterlimit:10;stroke-dasharray:none;stroke-opacity:1"
                   id="path23164" />
              </g>
              <g
                 id="g23166"
                 transform="translate(709.8479,848.3962)">
                <path
                   d="M 0,0 V -43.411"
                   style="fill:none;stroke:#343442;stroke-width:7;stroke-linecap:round;stroke-linejoin:round;stroke-miterlimit:10;stroke-dasharray:none;stroke-opacity:1"
                   id="path23168" />
              </g>
              <g
                 id="g23170"
                 transform="translate(709.8479,848.3962)">
                <path
                   d="M 0,0 V -43.411"
                   style="fill:none;stroke:#000000;stroke-width:7;stroke-linecap:round;stroke-linejoin:round;stroke-miterlimit:10;stroke-dasharray:none;stroke-opacity:1"
                   id="path23172" />
              </g>
              <g
                 id="g23174"
                 transform="translate(744.5071,830.1613)">
                <path
                   d="M 0,0 V -43.411"
                   style="fill:none;stroke:#343442;stroke-width:7;stroke-linecap:round;stroke-linejoin:round;stroke-miterlimit:10;stroke-dasharray:none;stroke-opacity:1"
                   id="path23176" />
              </g>
              <g
                 id="g23178"
                 transform="translate(744.5071,830.1613)">
                <path
                   d="M 0,0 V -43.411"
                   style="fill:none;stroke:#000000;stroke-width:7;stroke-linecap:round;stroke-linejoin:round;stroke-miterlimit:10;stroke-dasharray:none;stroke-opacity:1"
                   id="path23180" />
              </g>
              <g
                 id="g23182"
                 transform="translate(779.1663,811.9547)">
                <path
                   d="M 0,0 V -43.411"
                   style="fill:none;stroke:#343442;stroke-width:7;stroke-linecap:round;stroke-linejoin:round;stroke-miterlimit:10;stroke-dasharray:none;stroke-opacity:1"
                   id="path23184" />
              </g>
              <g
                 id="g23186"
                 transform="translate(779.1663,811.9547)">
                <path
                   d="M 0,0 V -43.411"
                   style="fill:none;stroke:#000000;stroke-width:7;stroke-linecap:round;stroke-linejoin:round;stroke-miterlimit:10;stroke-dasharray:none;stroke-opacity:1"
                   id="path23188" />
              </g>
            </g>
          </g>
        </g>
      </g>
    </g>
  </g>
</svg>
