<?xml version="1.0" encoding="UTF-8" standalone="no"?>
<svg
   xmlns:dc="http://purl.org/dc/elements/1.1/"
   xmlns:cc="http://creativecommons.org/ns#"
   xmlns:rdf="http://www.w3.org/1999/02/22-rdf-syntax-ns#"
   xmlns:svg="http://www.w3.org/2000/svg"
   xmlns="http://www.w3.org/2000/svg"
   xmlns:sodipodi="http://sodipodi.sourceforge.net/DTD/sodipodi-0.dtd"
   xmlns:inkscape="http://www.inkscape.org/namespaces/inkscape"
   width="185.09283mm"
   height="184.37132mm"
   viewBox="0 0 185.09283 184.37132"
   version="1.1"
   id="svg8651"
   inkscape:version="1.0.1 (3bc2e81, 2020-09-07)">
  <defs
     id="defs8645">
    <clipPath
       clipPathUnits="userSpaceOnUse"
       id="clipPath82">
      <path
         d="M 0,2560 H 1440 V 0 H 0 Z"
         id="path80" />
    </clipPath>
    <clipPath
       clipPathUnits="userSpaceOnUse"
       id="clipPath90">
      <path
         d="M 12.5697,2551.36 H 1427.43 V 8.63821 H 12.5697 Z"
         id="path88" />
    </clipPath>
    <clipPath
       clipPathUnits="userSpaceOnUse"
       id="clipPath5318">
      <path
         d="M 0,2560 H 1440 V 0 H 0 Z"
         id="path5316" />
    </clipPath>
    <clipPath
       clipPathUnits="userSpaceOnUse"
       id="clipPath5526">
      <path
         d="M 0,2560 H 1440 V 0 H 0 Z"
         id="path5524" />
    </clipPath>
    <clipPath
       clipPathUnits="userSpaceOnUse"
       id="clipPath5614">
      <path
         d="M 0,2560 H 1440 V 0 H 0 Z"
         id="path5612" />
    </clipPath>
    <clipPath
       clipPathUnits="userSpaceOnUse"
       id="clipPath5686">
      <path
         d="m 747.486,2374.824 c 0,-32.711 26.517,-59.228 59.228,-59.228 v 0 c 32.711,0 59.228,26.517 59.228,59.228 v 0 c 0,32.711 -26.517,59.228 -59.228,59.228 v 0 c -32.711,0 -59.228,-26.517 -59.228,-59.228"
         id="path5684" />
    </clipPath>
    <clipPath
       clipPathUnits="userSpaceOnUse"
       id="clipPath5766">
      <path
         d="M 0,2560 H 1440 V 0 H 0 Z"
         id="path5764" />
    </clipPath>
    <clipPath
       clipPathUnits="userSpaceOnUse"
       id="clipPath8961">
      <path
         d="M 0,2560 H 1440 V 0 H 0 Z"
         id="path8959" />
    </clipPath>
    <clipPath
       clipPathUnits="userSpaceOnUse"
       id="clipPath8969">
      <path
         d="M 12.5697,2551.36 H 1427.43 V 8.63821 H 12.5697 Z"
         id="path8967" />
    </clipPath>
    <clipPath
       clipPathUnits="userSpaceOnUse"
       id="clipPath14197">
      <path
         d="M 0,2560 H 1440 V 0 H 0 Z"
         id="path14195" />
    </clipPath>
    <clipPath
       clipPathUnits="userSpaceOnUse"
       id="clipPath14405">
      <path
         d="M 0,2560 H 1440 V 0 H 0 Z"
         id="path14403" />
    </clipPath>
    <clipPath
       clipPathUnits="userSpaceOnUse"
       id="clipPath14493">
      <path
         d="M 0,2560 H 1440 V 0 H 0 Z"
         id="path14491" />
    </clipPath>
    <clipPath
       clipPathUnits="userSpaceOnUse"
       id="clipPath14565">
      <path
         d="m 747.486,2374.824 c 0,-32.711 26.517,-59.228 59.228,-59.228 v 0 c 32.711,0 59.228,26.517 59.228,59.228 v 0 c 0,32.711 -26.517,59.228 -59.228,59.228 v 0 c -32.711,0 -59.228,-26.517 -59.228,-59.228"
         id="path14563" />
    </clipPath>
    <clipPath
       clipPathUnits="userSpaceOnUse"
       id="clipPath14645">
      <path
         d="M 0,2560 H 1440 V 0 H 0 Z"
         id="path14643" />
    </clipPath>
  </defs>
  <sodipodi:namedview
     id="base"
     pagecolor="#ffffff"
     bordercolor="#666666"
     borderopacity="1.0"
     inkscape:pageopacity="0.0"
     inkscape:pageshadow="2"
     inkscape:zoom="1.24"
     inkscape:cx="309.95156"
     inkscape:cy="470.38556"
     inkscape:document-units="mm"
     inkscape:current-layer="g14193"
     inkscape:document-rotation="0"
     showgrid="false"
     fit-margin-top="0"
     fit-margin-left="0"
     fit-margin-right="0"
     fit-margin-bottom="2.7755576e-17"
     inkscape:window-width="2560"
     inkscape:window-height="1403"
     inkscape:window-x="1920"
     inkscape:window-y="0"
     inkscape:window-maximized="1" />
  <metadata
     id="metadata8648">
    <rdf:RDF>
      <cc:Work
         rdf:about="">
        <dc:format>image/svg+xml</dc:format>
        <dc:type
           rdf:resource="http://purl.org/dc/dcmitype/StillImage" />
        <dc:title></dc:title>
      </cc:Work>
    </rdf:RDF>
  </metadata>
  <g
     inkscape:label="Background"
     inkscape:groupmode="layer"
     id="layer1"
     transform="translate(-14.863623,-90.042931)" />
  <g
     inkscape:groupmode="layer"
     id="layer2"
     inkscape:label="Robot"
     transform="translate(-14.863623,-90.042931)">
    <g
       id="g14193"
       clip-path="url(#clipPath14197)"
       transform="matrix(0.35277777,0,0,-0.35277777,-291.17214,274.41426)">
      <g
         id="g14199"
         transform="matrix(0.67272645,0,0,1.1373705,1005.743,271.3593)">
        <path
           d="M 0.08279779,0 C 3.6101757,19.818694 -4.2381492,41.004195 -19.002901,51.519329 c -13.792813,9.82132 -30.959203,9.08491 -48.337637,-2.073873 -20.676477,-13.277143 -35.999092,-1.433065 -41.626882,4.27553 -11.5832,11.749424 -16.11528,30.030934 -10.10253,40.752415 l -2.77295,1.681058 c -6.82178,-12.164957 -2.15046,-31.853975 10.63492,-44.823491 5.86713,-5.950909 12.826334,-9.710574 20.124985,-10.872928 8.430761,-1.342196 16.9862,0.725999 25.428791,6.146844 16.232673,10.424266 32.156837,11.190964 44.837561,2.160009 C -7.0656939,38.972917 0.23113695,19.169366 -3.0732772,0.60673336 Z"
           style="fill:#000000;fill-opacity:1;fill-rule:nonzero;stroke:none;stroke-width:0.928119"
           id="path14201" />
      </g>
      <g
         id="g14231"
         transform="translate(976.7781,286.0007)">
        <path
           d="m 0,0 68.953,-70.37 c 10.571,-10.788 10.395,-28.103 -0.393,-38.674 v 0 c -10.788,-10.57 -28.103,-10.394 -38.673,0.394 l -68.954,70.37 c -10.57,10.788 -10.394,28.103 0.394,38.673 v 0 C -27.885,10.964 -10.571,10.788 0,0"
           style="fill:#929497;fill-opacity:1;fill-rule:nonzero;stroke:none"
           id="path14233" />
      </g>
      <g
         id="g14235"
         transform="translate(976.7781,286.0007)">
        <path
           d="m 0,0 68.953,-70.37 c 10.571,-10.788 10.395,-28.103 -0.393,-38.674 v 0 c -10.788,-10.57 -28.103,-10.394 -38.673,0.394 l -68.954,70.37 c -10.57,10.788 -10.394,28.103 0.394,38.673 v 0 C -27.885,10.964 -10.571,10.788 0,0 Z"
           style="fill:none;stroke:#000000;stroke-width:5;stroke-linecap:butt;stroke-linejoin:miter;stroke-miterlimit:10;stroke-dasharray:none;stroke-opacity:1"
           id="path14237" />
      </g>
      <g
         id="g14239"
         transform="translate(950.8722,247.0311)">
        <path
           d="M 0,0 C -10.999,3.571 -17.021,15.382 -13.45,26.381 -9.88,37.38 1.932,43.402 12.931,39.832 23.93,36.261 29.952,24.45 26.381,13.451 22.81,2.451 10.999,-3.571 0,0"
           style="fill:#000000;fill-opacity:1;fill-rule:nonzero;stroke:none"
           id="path14241" />
      </g>
      <g
         id="g14243"
         transform="translate(1014.1653,182.2795)">
        <path
           d="M 0,0 C -10.999,3.571 -17.021,15.382 -13.45,26.381 -9.88,37.38 1.932,43.402 12.931,39.832 23.93,36.261 29.952,24.45 26.381,13.451 22.81,2.451 10.999,-3.571 0,0"
           style="fill:#000000;fill-opacity:1;fill-rule:nonzero;stroke:none"
           id="path14245" />
      </g>
      <g
         id="g9654"
         transform="rotate(-39.417964,917.35665,303.3344)"
         inkscape:transform-center-x="-5.4705611"
         inkscape:transform-center-y="-23.914177">
        <g
           id="g14203"
           transform="translate(894.2488,377.204)">
          <path
             d="M 0,0 14.298,-33.745 3.041,-38.515 -11.258,-4.77 Z"
             style="fill:#000000;fill-opacity:1;fill-rule:nonzero;stroke:none"
             id="path14205" />
        </g>
        <g
           id="g14207"
           transform="translate(884.6484,362.9968)">
          <path
             d="M 0,0 14.353,6.266 19.498,14.553 -9.575,1.861 Z"
             style="fill:#000000;fill-opacity:1;fill-rule:nonzero;stroke:none"
             id="path14209" />
        </g>
        <g
           id="g14211"
           transform="translate(907.6838,378.7441)">
          <path
             d="M 0,0 -7.662,17.351 -41.435,2.437 -33.773,-14.914 Z"
             style="fill:#000000;fill-opacity:1;fill-rule:nonzero;stroke:none"
             id="path14213" />
        </g>
        <g
           id="g14215"
           transform="translate(931.0059,289.3125)">
          <path
             d="m 0,0 c -5.062,0 -9.784,2.494 -12.632,6.672 l -25.923,38.024 c -2.299,3.371 -3.147,7.436 -2.388,11.445 0.759,4.009 3.033,7.482 6.404,9.78 2.548,1.737 5.519,2.655 8.593,2.655 5.062,0 9.784,-2.494 12.632,-6.672 L 12.609,23.88 C 14.907,20.509 15.755,16.444 14.997,12.436 14.238,8.426 11.963,4.953 8.592,2.655 6.044,0.918 3.074,0 0,0 Z"
             style="fill:#929497;fill-opacity:1;fill-rule:nonzero;stroke:none"
             id="path14217" />
        </g>
        <g
           id="g14219"
           transform="translate(905.0597,360.3887)">
          <path
             d="m 0,0 c -3.578,0 -7.036,-1.068 -10.001,-3.089 -8.098,-5.521 -10.194,-16.601 -4.674,-24.699 l 25.923,-38.025 c 3.315,-4.861 8.809,-7.763 14.698,-7.763 3.578,0 7.036,1.068 10.001,3.089 3.923,2.674 6.569,6.716 7.452,11.382 0.883,4.664 -0.104,9.394 -2.778,13.317 L 14.698,-7.763 C 11.384,-2.902 5.889,0 0,0 m 0,-5 c 4.082,0 8.094,-1.952 10.566,-5.58 L 36.49,-48.605 c 3.974,-5.829 2.47,-13.776 -3.36,-17.75 v 0 c -2.202,-1.502 -4.706,-2.221 -7.184,-2.221 -4.082,0 -8.093,1.952 -10.566,5.58 l -25.924,38.025 c -3.974,5.829 -2.47,13.776 3.36,17.75 C -4.982,-5.719 -2.478,-5 0,-5"
             style="fill:#000000;fill-opacity:1;fill-rule:nonzero;stroke:none"
             id="path14221" />
        </g>
        <g
           id="g14223"
           transform="translate(905.8923,337.3379)">
          <path
             d="M 0,0 C 2.838,0.58 4.675,3.36 4.096,6.198 3.516,9.036 0.736,10.873 -2.102,10.294 -4.94,9.714 -6.778,6.934 -6.198,4.096 -5.618,1.258 -2.838,-0.58 0,0"
             style="fill:#000000;fill-opacity:1;fill-rule:nonzero;stroke:none"
             id="path14225" />
        </g>
        <g
           id="g14227"
           transform="translate(932.8228,298.8633)">
          <path
             d="M 0,0 C 2.838,0.58 4.675,3.36 4.096,6.198 3.516,9.036 0.736,10.873 -2.102,10.294 -4.94,9.714 -6.778,6.934 -6.198,4.096 -5.618,1.258 -2.838,-0.58 0,0"
             style="fill:#000000;fill-opacity:1;fill-rule:nonzero;stroke:none"
             id="path14229" />
        </g>
        <g
           id="g14247"
           transform="translate(895.5353,388.3605)">
          <path
             d="m 0,0 v 0 c -1.643,-0.694 -3.556,0.082 -4.249,1.726 l -23.915,56.638 c -0.694,1.643 0.082,3.555 1.725,4.249 v 0 c 1.644,0.694 3.556,-0.082 4.25,-1.726 L 1.726,4.249 C 2.419,2.606 1.643,0.694 0,0"
             style="fill:#000000;fill-opacity:1;fill-rule:nonzero;stroke:none"
             id="path14249" />
        </g>
        <g
           id="g14251"
           transform="translate(878.3698,367.4265)">
          <path
             d="m 0,0 v 0 c -1.632,-0.721 -3.556,0.025 -4.277,1.656 l -12.307,27.869 c -0.72,1.632 0.025,3.556 1.656,4.277 1.632,0.72 3.557,-0.025 4.277,-1.657 L 1.656,4.276 C 2.377,2.645 1.631,0.721 0,0"
             style="fill:#000000;fill-opacity:1;fill-rule:nonzero;stroke:none"
             id="path14253" />
        </g>
        <g
           id="g14255"
           transform="translate(885.0662,379.7898)">
          <path
             d="m 0,0 v 0 c -1.632,-0.721 -3.556,0.025 -4.277,1.656 l -12.307,27.869 c -0.72,1.632 0.025,3.556 1.656,4.277 1.632,0.72 3.557,-0.025 4.277,-1.657 L 1.656,4.276 C 2.377,2.645 1.631,0.721 0,0"
             style="fill:#000000;fill-opacity:1;fill-rule:nonzero;stroke:none"
             id="path14257" />
        </g>
      </g>
      <g
         id="g14259"
         transform="translate(1300.7664,159.4924)">
        <path
           d="m 0,0 c -12.901,-6.88 -21.228,-21.089 -20.249,-34.554 0.914,-12.578 9.404,-22.373 23.907,-27.581 17.255,-6.196 17.742,-20.591 17.149,-26.493 -1.217,-12.146 -9.456,-23.086 -18.366,-24.386 l 0.35,-2.396 c 10.11,1.476 19.082,13.134 20.426,26.541 0.616,6.152 -0.523,11.957 -3.296,16.789 -3.204,5.581 -8.4,9.694 -15.445,12.224 -13.546,4.865 -21.47,13.913 -22.31,25.478 -0.912,12.54 6.89,25.798 18.974,32.242 z"
           style="fill:#000000;fill-opacity:1;fill-rule:nonzero;stroke:none"
           id="path14261" />
      </g>
      <g
         id="g14263"
         transform="translate(1290.6755,68.6544)">
        <path
           d="m 0,0 0.807,0.99 0.735,9.129 2.647,3.275 -14.753,11.922 -0.15,-0.186 -18.401,34.949 c -0.437,0.831 -1.368,1.275 -2.289,1.093 l -9.149,-1.814 c -0.485,-0.096 -0.899,-0.351 -1.198,-0.7 -0.408,-0.477 -0.602,-1.13 -0.47,-1.793 0.228,-1.149 1.344,-1.896 2.493,-1.668 l 7.597,1.506 18.514,-35.165 -7.117,-8.807 -27.509,21.989 c -0.159,0.128 -0.336,0.231 -0.525,0.308 l -8.256,3.359 c -0.868,0.353 -1.833,0.09 -2.411,-0.584 -0.144,-0.169 -0.265,-0.364 -0.353,-0.581 -0.441,-1.085 0.08,-2.322 1.165,-2.764 l 7.972,-3.243 27.251,-21.783 -7.305,-9.041 -39.919,9.565 0.314,5.831 c 0.064,1.169 -0.834,2.168 -2.003,2.231 -1.17,0.064 -2.169,-0.833 -2.232,-2.003 l -0.41,-7.596 c -0.055,-1.022 0.628,-1.938 1.624,-2.176 l 39.673,-9.506 -0.111,-0.137 14.753,-11.922 1.354,1.676 8.575,2.497 1.362,1.671 21.001,-17.5 7.827,9.393 z"
           style="fill:#000000;fill-opacity:1;fill-rule:nonzero;stroke:none"
           id="path14265" />
      </g>
      <g
         id="g14267"
         transform="translate(1303.8242,35.1621)">
        <path
           d="m 0,0 c -5.515,0 -10.62,2.983 -13.322,7.786 -4.13,7.339 -1.52,16.671 5.819,20.802 l 40.107,22.571 c 2.285,1.285 4.871,1.965 7.479,1.965 5.516,0 10.621,-2.983 13.323,-7.786 4.131,-7.34 1.52,-16.672 -5.82,-20.802 L 7.479,1.966 C 5.195,0.68 2.609,0 0.001,0 Z"
           style="fill:#929497;fill-opacity:1;fill-rule:nonzero;stroke:none"
           id="path14269" />
      </g>
      <g
         id="g14271"
         transform="translate(1343.9073,90.7864)">
        <path
           d="m 0,0 c -3.037,0 -6.047,-0.791 -8.706,-2.287 l -40.105,-22.571 c -8.541,-4.807 -11.58,-15.666 -6.773,-24.207 3.145,-5.588 9.085,-9.06 15.502,-9.06 3.037,0 6.047,0.791 8.706,2.287 l 40.105,22.571 c 4.138,2.329 7.121,6.129 8.4,10.701 1.279,4.573 0.701,9.369 -1.627,13.506 C 12.357,-3.471 6.417,0 0,0 m 0,-5 c 4.464,0 8.799,-2.344 11.144,-6.512 3.46,-6.148 1.281,-13.937 -4.867,-17.397 L -33.829,-51.48 c -1.981,-1.115 -4.131,-1.645 -6.253,-1.645 -4.464,0 -8.799,2.345 -11.144,6.512 -3.461,6.149 -1.281,13.938 4.867,17.398 L -6.253,-6.644 C -4.272,-5.529 -2.122,-5 0,-5"
           style="fill:#000000;fill-opacity:1;fill-rule:nonzero;stroke:none"
           id="path14273" />
      </g>
      <g
         id="g14275"
         transform="translate(1309.1395,50.8051)">
        <path
           d="m 0,0 c -0.334,2.877 -2.947,4.946 -5.824,4.612 -2.878,-0.335 -4.947,-2.947 -4.612,-5.825 0.334,-2.877 2.947,-4.946 5.824,-4.611 C -1.734,-5.49 0.334,-2.877 0,0"
           style="fill:#000000;fill-opacity:1;fill-rule:nonzero;stroke:none"
           id="path14277" />
      </g>
      <g
         id="g14279"
         transform="translate(1349.7795,74.3408)">
        <path
           d="M 0,0 C -0.334,2.877 -2.947,4.946 -5.824,4.612 -8.702,4.277 -10.77,1.665 -10.436,-1.213 -10.102,-4.09 -7.489,-6.159 -4.612,-5.824 -1.734,-5.49 0.334,-2.877 0,0"
           style="fill:#000000;fill-opacity:1;fill-rule:nonzero;stroke:none"
           id="path14281" />
      </g>
      <g
         id="g14283"
         transform="translate(1338.538,100.7974)">
        <path
           d="m 0,0 -48.546,85.731 c -7.442,13.143 -2.821,29.83 10.322,37.273 v 0 c 13.142,7.442 29.83,2.821 37.272,-10.322 L 47.594,26.951 c 7.442,-13.143 2.821,-29.83 -10.321,-37.273 v 0 C 24.13,-17.764 7.442,-13.143 0,0"
           style="fill:#929497;fill-opacity:1;fill-rule:nonzero;stroke:none"
           id="path14285" />
      </g>
      <g
         id="g14287"
         transform="translate(1338.538,100.7974)">
        <path
           d="m 0,0 -48.546,85.731 c -7.442,13.143 -2.821,29.83 10.322,37.273 v 0 c 13.142,7.442 29.83,2.821 37.272,-10.322 L 47.594,26.951 c 7.442,-13.143 2.821,-29.83 -10.321,-37.273 v 0 C 24.13,-17.764 7.442,-13.143 0,0 Z"
           style="fill:none;stroke:#000000;stroke-width:5;stroke-linecap:butt;stroke-linejoin:miter;stroke-miterlimit:10;stroke-dasharray:none;stroke-opacity:1"
           id="path14289" />
      </g>
      <g
         id="g14291"
         transform="translate(1373.5911,131.7979)">
        <path
           d="m 0,0 c 9.712,-6.278 12.495,-19.24 6.217,-28.952 -6.279,-9.712 -19.241,-12.495 -28.952,-6.217 -9.712,6.278 -12.495,19.24 -6.217,28.952 C -22.674,3.495 -9.711,6.278 0,0"
           style="fill:#000000;fill-opacity:1;fill-rule:nonzero;stroke:none"
           id="path14293" />
      </g>
      <g
         id="g14295"
         transform="translate(1329.0706,210.644)">
        <path
           d="m 0,0 c 9.712,-6.278 12.495,-19.24 6.217,-28.952 -6.279,-9.712 -19.241,-12.495 -28.952,-6.217 -9.712,6.278 -12.495,19.24 -6.217,28.952 C -22.674,3.495 -9.712,6.278 0,0"
           style="fill:#000000;fill-opacity:1;fill-rule:nonzero;stroke:none"
           id="path14297" />
      </g>
      <g
         id="g14299"
         transform="translate(1183.2106,501.9584)">
        <path
           d="m 0,0 c -0.995,-18.482 -28.868,-18.65 -28.868,0 0,18.653 27.872,18.493 28.868,0 m -9.241,-19.973 c 8.557,2.236 14.535,9.926 15.384,19.045 C 6.211,-0.644 6.254,-0.342 6.235,0 6.253,0.338 6.211,0.637 6.146,0.918 5.145,11.719 -3.058,20.669 -14.434,20.669 -25.635,20.669 -35.153,11.235 -35.103,0 c 0.046,-10.346 7.963,-19.18 18.098,-20.463 l 8.609,-12.36 -38.832,1.468 24.386,-34.404 5.426,3.846 -16.588,23.402 38.696,-1.461 z"
           style="fill:#000000;fill-opacity:1;fill-rule:nonzero;stroke:none"
           id="path14301" />
      </g>
      <g
         id="g14303"
         transform="translate(1183.2106,501.9584)">
        <path
           d="m 0,0 c -0.996,18.493 -28.868,18.653 -28.868,0 0,-18.65 27.873,-18.482 28.868,0"
           style="fill:#e6be20;fill-opacity:1;fill-rule:nonzero;stroke:none"
           id="path14305" />
      </g>
      <g
         id="g14307"
         transform="translate(1212.1915,256.8684)">
        <path
           d="m 0,0 h -78.091 c -32.553,0 -60.572,-13.821 -81.029,-39.97 -26.045,-33.294 -35.277,-82.443 -24.245,-128.578 6.027,-4.511 42.953,-28.515 145.681,-28.515 2.861,0 5.654,0.025 8.411,0.062 0.98,0.014 1.937,0.036 2.904,0.054 1.719,0.032 3.423,0.07 5.102,0.116 1.188,0.033 2.366,0.069 3.533,0.109 1.35,0.046 2.678,0.099 4.001,0.153 1.331,0.056 2.667,0.109 3.971,0.174 0.832,0.04 1.639,0.089 2.46,0.133 5.774,0.313 11.303,0.705 16.558,1.174 0.118,0.01 0.238,0.021 0.355,0.031 1.94,0.175 3.848,0.359 5.719,0.552 10e-4,0.001 0.002,0.001 0.003,0.001 v 173.305 h 46.929 v -165.213 c 18.67,4.819 30.416,10.259 37.013,14.001 0.036,0.02 0.072,0.04 0.107,0.061 0.539,0.306 1.039,0.6 1.509,0.882 0.061,0.037 0.125,0.075 0.185,0.111 0.43,0.26 0.826,0.507 1.199,0.744 0.07,0.045 0.147,0.092 0.216,0.136 0.346,0.222 0.66,0.429 0.955,0.627 0.065,0.044 0.14,0.093 0.202,0.135 0.274,0.186 0.514,0.354 0.742,0.515 0.058,0.042 0.13,0.091 0.186,0.131 0.263,0.189 0.497,0.361 0.693,0.509 11.038,46.139 1.808,95.293 -24.24,128.589 C 60.573,-13.822 32.554,0 0,0"
           style="fill:#da313e;fill-opacity:1;fill-rule:nonzero;stroke:none"
           id="path14309" />
      </g>
      <g
         id="g14311"
         transform="translate(1033.1475,70.8224)">
        <path
           d="m 0,0 10.597,-42.73 c 15.342,-61.865 69.763,-106.766 129.401,-106.766 59.638,0 114.059,44.901 129.402,106.766 L 279.996,0.001 C 253.207,-14.549 201.772,-23.585 139.997,-23.585 78.222,-23.585 26.79,-14.55 0,0"
           style="fill:#0079a5;fill-opacity:1;fill-rule:nonzero;stroke:none"
           id="path14313" />
      </g>
      <g
         id="g14315"
         transform="translate(1266.14,68.4618)">
        <path
           d="M 0,0 V 158.895 H -30.302 V -5.152 C -18.821,-3.722 -8.76,-1.949 0,0"
           style="fill:#0079a5;fill-opacity:1;fill-rule:nonzero;stroke:none"
           id="path14317" />
      </g>
      <g
         id="g14319"
         transform="translate(1235.8379,63.3094)">
        <path
           d="M 0,0.26784058 V 164.09719 H 30.302 V 5.413005 C 21.542,3.4665909 11.481,1.696942 0,0.26784058 M 81.623,25.233672 c -0.196,-0.147803 -0.43,-0.319575 -0.694,-0.508324 -0.056,-0.04095 -0.126,-0.08788 -0.186,-0.130826 -0.227,-0.160787 -0.467,-0.328564 -0.741,-0.514317 -0.064,-0.04294 -0.136,-0.08988 -0.202,-0.134821 -0.295,-0.196739 -0.609,-0.404463 -0.956,-0.626168 -0.069,-0.04394 -0.144,-0.09088 -0.216,-0.13582 -0.372,-0.236685 -0.768,-0.483357 -1.198,-0.743013 -0.061,-0.03595 -0.123,-0.0729 -0.185,-0.110852 -0.47,-0.281626 -0.971,-0.575236 -1.509,-0.88083 -0.036,-0.02097 -0.071,-0.04095 -0.108,-0.06092 C 69.032,17.650747 57.286,12.217964 38.616,7.4053581 V 172.39916 H -8.313 V -0.67590561 c -10e-4,0 -0.003,0 -0.003,-9.9868e-4 -1.872,-0.19274393 -3.779,-0.37649981 -5.719,-0.55126761 -0.118,-0.010985 -0.238,-0.019974 -0.356,-0.030959 -5.255,-0.4683777 -10.783,-0.8598576 -16.557,-1.1714437 -0.821,-0.04494 -1.629,-0.092877 -2.461,-0.1338222 -1.304,-0.063915 -2.64,-0.1178434 -3.97,-0.1727704 -1.322,-0.055926 -2.652,-0.1078568 -4.001,-0.1537957 -1.167,-0.039947 -2.346,-0.075899 -3.533,-0.1088554 -1.678,-0.046938 -3.384,-0.083889 -5.102,-0.1158461 -0.967,-0.017976 -1.924,-0.039947 -2.904,-0.05293 -2.757,-0.038948 -5.55,-0.062916 -8.411,-0.062916 -102.729,0 -139.654,23.9721524 -145.681,28.4771674 -11.033,46.073789 -1.801,95.157583 24.245,128.407403 20.456,26.11431 48.475,39.91697 81.029,39.91697 h 78.091 c 32.554,0 60.573,-13.80366 81.029,-39.91797 C 83.43,120.40124 92.661,71.311456 81.623,25.233672 M 66.709,-34.902434 C 51.367,-96.685353 -3.054,-141.52678 -62.692,-141.52678 c -59.638,0 -114.059,44.841427 -129.402,106.624346 L -202.69,7.7708725 c 26.789,-14.5306954 78.222,-23.5537075 139.996,-23.5537075 61.776,0 113.21,9.0240108 140,23.5547062 z M 63.931,158.76827 C 42.157,186.56434 11.054,201.873 -23.646,201.873 h -78.092 c -34.699,0 -65.804,-15.30966 -87.576,-43.10473 -27.838,-35.53679 -37.59,-87.980118 -25.451,-136.862177 l 14.603,-58.806872 c 16.248,-65.435071 74.063,-112.927971 137.47,-112.927971 63.406,0 121.221,47.4929 137.471,112.927971 L 89.382,21.906093 C 101.521,70.788152 91.768,123.23048 63.931,158.76827"
           style="fill:#000000;fill-opacity:1;fill-rule:nonzero;stroke:none;stroke-width:0.999336"
           id="path14321" />
      </g>
      <g
         id="g14323"
         transform="translate(1158.54,111.2673)">
        <path
           d="m 0,0 c -6.47,0 -11.715,-5.245 -11.715,-11.715 0,-6.47 5.245,-11.715 11.715,-11.715 6.47,0 11.715,5.245 11.715,11.715 C 11.715,-5.245 6.47,0 0,0 m 29.212,0 c -6.47,0 -11.715,-5.245 -11.715,-11.715 0,-6.47 5.245,-11.715 11.715,-11.715 6.47,0 11.715,5.245 11.715,11.715 C 40.927,-5.245 35.682,0 29.212,0 M 0,30.838 c -6.47,0 -11.715,-5.245 -11.715,-11.715 0,-6.47 5.245,-11.715 11.715,-11.715 6.47,0 11.715,5.245 11.715,11.715 0,6.47 -5.245,11.715 -11.715,11.715 M 40.927,19.123 c 0,-6.47 -5.245,-11.715 -11.715,-11.715 -6.47,0 -11.715,5.245 -11.715,11.715 0,6.47 5.245,11.715 11.715,11.715 6.47,0 11.715,-5.245 11.715,-11.715"
           style="fill:#000000;fill-opacity:1;fill-rule:nonzero;stroke:none"
           id="path14325" />
      </g>
      <g
         id="g14327"
         transform="translate(1170.0524,442.6639)">
        <path
           d="m 0,0 c -105.585,0 -191.484,-85.899 -191.484,-191.483 v -9.733 c 0,-6.877 5.594,-12.47 12.47,-12.47 l 0.68,-0.056 c 1.151,-0.191 115.72,-19.087 179.432,-19.087 70.733,0 176.118,18.885 177.175,19.076 l 0.739,0.067 c 6.876,0 12.47,5.593 12.47,12.47 v 9.733 C 191.482,-85.899 105.583,0 0,0"
           style="fill:#0079a5;fill-opacity:1;fill-rule:nonzero;stroke:none"
           id="path14329" />
      </g>
      <g
         id="g14331"
         transform="translate(1361.5342,241.4478)">
        <path
           d="m 0,0 c 0,-6.876 -5.594,-12.47 -12.47,-12.47 l -0.739,-0.067 c -1.057,-0.191 -106.442,-19.076 -177.175,-19.076 -63.711,0 -178.281,18.896 -179.431,19.087 l -0.681,0.056 c -6.875,0 -12.47,5.594 -12.47,12.47 v 9.733 c 0,105.584 85.899,191.483 191.484,191.483 C -85.899,201.216 0,115.317 0,9.733 Z m -191.483,209.53 c -110.168,0 -199.796,-89.629 -199.796,-199.797 V 0 c 0,-11.341 9.129,-20.589 20.425,-20.781 6.834,-1.121 117.758,-19.146 180.47,-19.146 69.424,0 171.505,17.938 178.302,19.146 C -0.8,-20.572 8.313,-11.33 8.313,0 v 9.733 c 0,110.168 -89.628,199.797 -199.796,199.797"
           style="fill:#000000;fill-opacity:1;fill-rule:nonzero;stroke:none"
           id="path14333" />
      </g>
      <g
         id="g14335"
         transform="translate(1186.374,425.2423)">
        <path
           d="m 0,0 c 0,0 -135.445,30.207 -150.314,-45.708 -14.869,-75.916 56.652,-93.686 65.796,-94.342 19.063,-1.369 42.549,-0.451 56.466,-3.177 13.917,-2.726 35.321,-12.436 53.492,-18.36 8.716,-2.841 81.656,-13.365 96.524,62.55 C 136.833,-23.121 0,0 0,0"
           style="fill:#000000;fill-opacity:1;fill-rule:nonzero;stroke:none"
           id="path14337" />
      </g>
      <g
         id="g14339"
         transform="translate(1290.7609,323.1148)">
        <path
           d="m 0,0 c -6.867,-35.059 -40.854,-57.913 -75.913,-51.047 -35.059,6.867 -57.913,40.854 -51.047,75.913 6.867,35.059 40.854,57.914 75.913,51.047 C -15.988,69.046 6.867,35.059 0,0"
           style="fill:#ffffff;fill-opacity:1;fill-rule:nonzero;stroke:none"
           id="path14341" />
      </g>
      <g
         id="g14343"
         transform="translate(1262.0706,336.349)">
        <path
           d="m 0,0 c -3.801,-19.409 -22.617,-32.062 -42.026,-28.26 -19.41,3.801 -32.062,22.617 -28.261,42.026 3.802,19.409 22.618,32.062 42.027,28.261 C -8.851,38.225 3.802,19.409 0,0"
           style="fill:#000000;fill-opacity:1;fill-rule:nonzero;stroke:none"
           id="path14345" />
      </g>
      <g
         id="g14347"
         transform="translate(1223.3481,367.0861)">
        <path
           d="m 0,0 c -1.62,-8.272 -9.64,-13.665 -17.912,-12.045 -8.273,1.62 -13.666,9.64 -12.045,17.912 1.62,8.273 9.64,13.666 17.912,12.045 C -3.772,16.292 1.62,8.272 0,0"
           style="fill:#ffffff;fill-opacity:1;fill-rule:nonzero;stroke:none"
           id="path14349" />
      </g>
      <g
         id="g14351"
         transform="translate(1158.0514,345.474)">
        <path
           d="m 0,0 c -5.71,-29.154 -33.973,-48.158 -63.126,-42.448 -29.154,5.71 -48.158,33.972 -42.448,63.126 5.709,29.153 33.972,48.158 63.126,42.448 C -13.295,57.416 5.71,29.154 0,0"
           style="fill:#ffffff;fill-opacity:1;fill-rule:nonzero;stroke:none"
           id="path14353" />
      </g>
      <g
         id="g14355"
         transform="translate(1129.7864,359.8332)">
        <path
           d="m 0,0 c -3.369,-17.203 -20.047,-28.418 -37.25,-25.048 -17.203,3.369 -28.418,20.046 -25.048,37.25 3.369,17.203 20.047,28.417 37.25,25.048 C -7.845,33.881 3.369,17.203 0,0"
           style="fill:#000000;fill-opacity:1;fill-rule:nonzero;stroke:none"
           id="path14357" />
      </g>
      <g
         id="g14359"
         transform="translate(1103.9224,382.7301)">
        <path
           d="m 0,0 c -1.742,-8.896 -10.367,-14.695 -19.263,-12.953 -8.896,1.742 -14.695,10.367 -12.953,19.263 1.743,8.896 10.367,14.695 19.263,12.953 C -4.057,17.52 1.742,8.896 0,0"
           style="fill:#ffffff;fill-opacity:1;fill-rule:nonzero;stroke:none"
           id="path14361" />
      </g>
      <g
         id="g14363"
         transform="translate(1265.4094,451.8595)">
        <path
           d="m 0,0 c 24.655,-0.329 50.219,-9.816 68.232,-25.713 9.292,-8.078 18.419,-17.374 21.675,-28.241 3.467,-10.578 3.691,-21.611 -0.533,-31.352 -0.209,-0.466 -0.848,-0.662 -1.427,-0.438 -0.253,0.098 -0.443,0.252 -0.577,0.441 -1.864,2.438 -3.292,4.814 -4.682,7.147 -4.084,6.54 -7.719,13.429 -11.572,19.77 -5.079,8.221 -8.12,16.961 -14.71,24.556 C 42.773,-18.057 21.78,-6.759 0.014,-1.683 -1.138,-1.526 -1.223,0.028 0,0"
           style="fill:#000000;fill-opacity:1;fill-rule:nonzero;stroke:none"
           id="path14365" />
      </g>
      <g
         id="g14367"
         transform="translate(1030.118,406.1148)">
        <path
           d="m 0,0 c 0.812,16.011 9.119,31.942 22.065,41.733 6.623,5.138 14.169,10.321 22.864,10.741 8.473,0.643 17.132,-1.227 24.107,-6.183 0.436,-0.323 0.527,-0.939 0.203,-1.375 C 62.666,40.959 55.022,38.802 48.116,36.155 41.893,33.763 35.241,33.525 29.256,30.543 16.579,24.205 7.119,12.923 1.639,-0.28 1.385,-1.178 -0.066,-0.98 0,0"
           style="fill:#000000;fill-opacity:1;fill-rule:nonzero;stroke:none"
           id="path14369" />
      </g>
      <g
         id="g14371"
         transform="translate(1111.0696,115.8464)">
        <path
           d="m 0,0 c 4.273,5.76 6.834,12.862 6.834,20.568 0,10.648 -4.838,20.18 -12.422,26.538 -1.643,1.377 -3.418,2.597 -5.299,3.654 -5.007,2.816 -10.77,4.44 -16.912,4.44 -19.097,0 -34.633,-15.535 -34.633,-34.632 0,-7.4 2.353,-14.25 6.322,-19.883 4.338,-6.158 10.612,-10.857 17.95,-13.163 3.273,-1.029 6.753,-1.587 10.361,-1.587 3.41,0 6.698,0.515 9.813,1.438 C -10.696,-10.468 -4.425,-5.964 0,0 m -13.636,-14.639 c -4.38,-1.768 -9.158,-2.751 -14.163,-2.751 -5.005,0 -9.783,0.983 -14.162,2.751 -5.724,2.311 -10.756,5.975 -14.703,10.598 -5.663,6.632 -9.093,15.225 -9.093,24.609 0,20.93 17.028,37.958 37.958,37.958 7.995,0 15.416,-2.491 21.541,-6.728 0.042,-0.029 0.082,-0.059 0.124,-0.088 C 3.705,44.844 10.16,33.449 10.16,20.568 10.16,10.901 6.522,2.072 0.55,-4.637 -3.316,-8.98 -8.161,-12.428 -13.636,-14.639 m -4.959,5.631 -2.902,17.23 -6.427,-8.904 -6.751,8.904 -2.868,-17.033 c 3.067,-1.017 6.336,-1.588 9.744,-1.588 3.205,0 6.296,0.487 9.204,1.391 m -26.658,55.15 9.371,2.144 7.958,-9.296 6.171,9.336 5.042,1.129 c -3.446,1.325 -7.175,2.081 -11.088,2.081 -6.476,0 -12.483,-1.995 -17.454,-5.394 M -55.415,6.609 -51.432,40.555 C -56,35.16 -58.766,28.191 -58.766,20.568 c 0,-5.028 1.225,-9.761 3.351,-13.959 M 3.168,20.568 C 3.168,15.154 1.772,10.07 -0.669,5.642 l -4.239,35.73 c 5.002,-5.5 8.076,-12.784 8.076,-20.804"
           style="fill:#ffffff;fill-opacity:1;fill-rule:nonzero;stroke:none"
           id="path14373" />
      </g>
      <g
         id="g14375"
         transform="translate(1095.8843,265.3959)">
        <path
           d="m 0,0 c -0.494,-4.661 2.407,-8.971 5.499,-12.494 10.784,-12.284 25.751,-20.827 41.813,-23.865 16.061,-3.038 33.114,-0.552 47.64,6.945 3.236,1.67 6.43,3.652 8.612,6.568 2.182,2.916 3.178,6.95 1.701,10.279 -1.465,3.3 -5.031,5.251 -8.591,5.85 -3.56,0.6 -7.198,0.086 -10.795,-0.228 C 68.299,-8.477 50.314,-5.058 34.522,2.817 28.377,5.881 22.312,9.68 15.472,10.281 8.631,10.881 0.724,6.829 0,0"
           style="fill:#000000;fill-opacity:1;fill-rule:nonzero;stroke:none"
           id="path14377" />
      </g>
      <g
         id="g14379"
         transform="translate(1095.8843,265.3959)">
        <path
           d="m 0,0 c -0.494,-4.661 2.407,-8.971 5.499,-12.494 10.784,-12.284 25.751,-20.827 41.813,-23.865 16.061,-3.038 33.114,-0.552 47.64,6.945 3.236,1.67 6.43,3.652 8.612,6.568 2.182,2.916 3.178,6.95 1.701,10.279 -1.465,3.3 -5.031,5.251 -8.591,5.85 -3.56,0.6 -7.198,0.086 -10.795,-0.228 C 68.299,-8.477 50.314,-5.058 34.522,2.817 28.377,5.881 22.312,9.68 15.472,10.281 8.631,10.881 0.724,6.829 0,0 Z"
           style="fill:none;stroke:#000000;stroke-width:1;stroke-linecap:butt;stroke-linejoin:miter;stroke-miterlimit:10;stroke-dasharray:none;stroke-opacity:1"
           id="path14381" />
      </g>
      <g
         id="g14383"
         transform="translate(1165.3466,247.0847)">
        <path
           d="m 0,0 c 0.608,0.249 1.205,0.525 1.787,0.829 1.883,0.983 3.611,2.249 5.12,3.744 1.496,1.482 2.703,3.211 3.797,5.008 -14.873,-1.08 -30.023,1.894 -43.369,8.549 -2.898,1.445 -5.778,3.065 -8.753,4.338 -0.026,-2.163 0.997,-4.932 1.652,-6.669 C -34.158,0.943 -14.257,-5.85 0,0"
           style="fill:#ffffff;fill-opacity:1;fill-rule:nonzero;stroke:none"
           id="path14385" />
      </g>
      <g
         id="g14387"
         transform="translate(1127.2991,226.8762)">
        <path
           d="m 0,0 c 0,0 0.511,-0.126 1.388,-0.383 0.881,-0.226 2.107,-0.724 3.594,-1.098 0.74,-0.201 1.537,-0.418 2.363,-0.678 0.818,-0.274 1.748,-0.412 2.657,-0.677 1.83,-0.513 3.825,-0.861 5.796,-1.301 1.996,-0.312 3.98,-0.716 5.871,-0.909 0.944,-0.087 1.853,-0.296 2.725,-0.343 0.871,-0.061 1.696,-0.149 2.461,-0.233 1.531,-0.196 2.815,-0.185 3.724,-0.298 0.909,-0.083 1.435,-0.153 1.435,-0.153 0,0 -0.503,-0.136 -1.398,-0.334 -0.895,-0.162 -2.18,-0.533 -3.748,-0.626 -0.782,-0.071 -1.634,-0.145 -2.537,-0.19 -0.904,-0.075 -1.855,-0.01 -2.841,0.021 -0.984,0.054 -2.013,0.03 -3.035,0.217 -1.027,0.144 -2.071,0.289 -3.115,0.435 -1.024,0.247 -2.048,0.494 -3.057,0.737 -1.018,0.205 -1.968,0.6 -2.903,0.911 C 8.449,-4.569 7.549,-4.281 6.725,-3.879 5.894,-3.504 5.125,-3.12 4.42,-2.767 2.986,-2.101 1.961,-1.303 1.181,-0.823 0.423,-0.312 0,0 0,0"
           style="fill:#1d1d1b;fill-opacity:1;fill-rule:nonzero;stroke:none"
           id="path14389" />
      </g>
      <g
         id="g14391"
         transform="translate(1148.226,242.4402)">
        <path
           d="m 0,0 c -8.274,1.635 -17.132,-0.031 -24.286,-4.495 6.13,-3.45 12.808,-5.926 19.72,-7.233 7.92,-1.498 16.115,-1.465 24.037,0.02 C 14.568,-5.741 7.582,-1.498 0,0"
           style="fill:#da313e;fill-opacity:1;fill-rule:nonzero;stroke:none"
           id="path14393" />
      </g>
      <g
         id="g14395"
         transform="translate(1147.4631,259.5521)">
        <path
           d="m 0,0 c -0.483,0.134 -0.966,0.268 -1.447,0.411 -1.163,-4.419 -1.644,-8.955 -1.459,-13.513 0.501,-0.15 1.006,-0.278 1.514,-0.405 C -1.627,-8.951 -1.159,-4.416 0,0"
           style="fill:#1d1d1b;fill-opacity:1;fill-rule:nonzero;stroke:none"
           id="path14397" />
      </g>
    </g>
  </g>
</svg>
